<?xml version="1.0" encoding="utf-8" standalone="no"?>
<!DOCTYPE svg PUBLIC "-//W3C//DTD SVG 1.1//EN"
  "http://www.w3.org/Graphics/SVG/1.1/DTD/svg11.dtd">
<svg xmlns:xlink="http://www.w3.org/1999/xlink" width="460.8pt" height="345.6pt" viewBox="0 0 460.8 345.6" xmlns="http://www.w3.org/2000/svg" version="1.1">
 <metadata>
  <rdf:RDF xmlns:dc="http://purl.org/dc/elements/1.1/" xmlns:cc="http://creativecommons.org/ns#" xmlns:rdf="http://www.w3.org/1999/02/22-rdf-syntax-ns#">
   <cc:Work>
    <dc:type rdf:resource="http://purl.org/dc/dcmitype/StillImage"/>
    <dc:date>2025-05-10T17:26:43.033791</dc:date>
    <dc:format>image/svg+xml</dc:format>
    <dc:creator>
     <cc:Agent>
      <dc:title>Matplotlib v3.8.4, https://matplotlib.org/</dc:title>
     </cc:Agent>
    </dc:creator>
   </cc:Work>
  </rdf:RDF>
 </metadata>
 <defs>
  <style type="text/css">*{stroke-linejoin: round; stroke-linecap: butt}</style>
 </defs>
 <g id="figure_1">
  <g id="patch_1">
   <path d="M 0 345.6 
L 460.8 345.6 
L 460.8 0 
L 0 0 
z
" style="fill: #ffffff"/>
  </g>
  <g id="axes_1">
   <g id="patch_2">
    <path d="M 57.6 307.584 
L 414.72 307.584 
L 414.72 41.472 
L 57.6 41.472 
z
" style="fill: #ffffff"/>
   </g>
   <g id="matplotlib.axis_1">
    <g id="xtick_1">
     <g id="line2d_1">
      <defs>
       <path id="m9c97eafebb" d="M 0 0 
L 0 3.5 
" style="stroke: #000000; stroke-width: 0.8"/>
      </defs>
      <g>
       <use xlink:href="#m9c97eafebb" x="70.553388" y="307.584" style="stroke: #000000; stroke-width: 0.8"/>
      </g>
     </g>
     <g id="text_1">
      <!-- 0 -->
      <g transform="translate(67.372138 322.182437) scale(0.1 -0.1)">
       <defs>
        <path id="DejaVuSans-30" d="M 2034 4250 
Q 1547 4250 1301 3770 
Q 1056 3291 1056 2328 
Q 1056 1369 1301 889 
Q 1547 409 2034 409 
Q 2525 409 2770 889 
Q 3016 1369 3016 2328 
Q 3016 3291 2770 3770 
Q 2525 4250 2034 4250 
z
M 2034 4750 
Q 2819 4750 3233 4129 
Q 3647 3509 3647 2328 
Q 3647 1150 3233 529 
Q 2819 -91 2034 -91 
Q 1250 -91 836 529 
Q 422 1150 422 2328 
Q 422 3509 836 4129 
Q 1250 4750 2034 4750 
z
" transform="scale(0.015625)"/>
       </defs>
       <use xlink:href="#DejaVuSans-30"/>
      </g>
     </g>
    </g>
    <g id="xtick_2">
     <g id="line2d_2">
      <g>
       <use xlink:href="#m9c97eafebb" x="136.140165" y="307.584" style="stroke: #000000; stroke-width: 0.8"/>
      </g>
     </g>
     <g id="text_2">
      <!-- 20 -->
      <g transform="translate(129.777665 322.182437) scale(0.1 -0.1)">
       <defs>
        <path id="DejaVuSans-32" d="M 1228 531 
L 3431 531 
L 3431 0 
L 469 0 
L 469 531 
Q 828 903 1448 1529 
Q 2069 2156 2228 2338 
Q 2531 2678 2651 2914 
Q 2772 3150 2772 3378 
Q 2772 3750 2511 3984 
Q 2250 4219 1831 4219 
Q 1534 4219 1204 4116 
Q 875 4013 500 3803 
L 500 4441 
Q 881 4594 1212 4672 
Q 1544 4750 1819 4750 
Q 2544 4750 2975 4387 
Q 3406 4025 3406 3419 
Q 3406 3131 3298 2873 
Q 3191 2616 2906 2266 
Q 2828 2175 2409 1742 
Q 1991 1309 1228 531 
z
" transform="scale(0.015625)"/>
       </defs>
       <use xlink:href="#DejaVuSans-32"/>
       <use xlink:href="#DejaVuSans-30" x="63.623047"/>
      </g>
     </g>
    </g>
    <g id="xtick_3">
     <g id="line2d_3">
      <g>
       <use xlink:href="#m9c97eafebb" x="201.726942" y="307.584" style="stroke: #000000; stroke-width: 0.8"/>
      </g>
     </g>
     <g id="text_3">
      <!-- 40 -->
      <g transform="translate(195.364442 322.182437) scale(0.1 -0.1)">
       <defs>
        <path id="DejaVuSans-34" d="M 2419 4116 
L 825 1625 
L 2419 1625 
L 2419 4116 
z
M 2253 4666 
L 3047 4666 
L 3047 1625 
L 3713 1625 
L 3713 1100 
L 3047 1100 
L 3047 0 
L 2419 0 
L 2419 1100 
L 313 1100 
L 313 1709 
L 2253 4666 
z
" transform="scale(0.015625)"/>
       </defs>
       <use xlink:href="#DejaVuSans-34"/>
       <use xlink:href="#DejaVuSans-30" x="63.623047"/>
      </g>
     </g>
    </g>
    <g id="xtick_4">
     <g id="line2d_4">
      <g>
       <use xlink:href="#m9c97eafebb" x="267.313719" y="307.584" style="stroke: #000000; stroke-width: 0.8"/>
      </g>
     </g>
     <g id="text_4">
      <!-- 60 -->
      <g transform="translate(260.951219 322.182437) scale(0.1 -0.1)">
       <defs>
        <path id="DejaVuSans-36" d="M 2113 2584 
Q 1688 2584 1439 2293 
Q 1191 2003 1191 1497 
Q 1191 994 1439 701 
Q 1688 409 2113 409 
Q 2538 409 2786 701 
Q 3034 994 3034 1497 
Q 3034 2003 2786 2293 
Q 2538 2584 2113 2584 
z
M 3366 4563 
L 3366 3988 
Q 3128 4100 2886 4159 
Q 2644 4219 2406 4219 
Q 1781 4219 1451 3797 
Q 1122 3375 1075 2522 
Q 1259 2794 1537 2939 
Q 1816 3084 2150 3084 
Q 2853 3084 3261 2657 
Q 3669 2231 3669 1497 
Q 3669 778 3244 343 
Q 2819 -91 2113 -91 
Q 1303 -91 875 529 
Q 447 1150 447 2328 
Q 447 3434 972 4092 
Q 1497 4750 2381 4750 
Q 2619 4750 2861 4703 
Q 3103 4656 3366 4563 
z
" transform="scale(0.015625)"/>
       </defs>
       <use xlink:href="#DejaVuSans-36"/>
       <use xlink:href="#DejaVuSans-30" x="63.623047"/>
      </g>
     </g>
    </g>
    <g id="xtick_5">
     <g id="line2d_5">
      <g>
       <use xlink:href="#m9c97eafebb" x="332.900496" y="307.584" style="stroke: #000000; stroke-width: 0.8"/>
      </g>
     </g>
     <g id="text_5">
      <!-- 80 -->
      <g transform="translate(326.537996 322.182437) scale(0.1 -0.1)">
       <defs>
        <path id="DejaVuSans-38" d="M 2034 2216 
Q 1584 2216 1326 1975 
Q 1069 1734 1069 1313 
Q 1069 891 1326 650 
Q 1584 409 2034 409 
Q 2484 409 2743 651 
Q 3003 894 3003 1313 
Q 3003 1734 2745 1975 
Q 2488 2216 2034 2216 
z
M 1403 2484 
Q 997 2584 770 2862 
Q 544 3141 544 3541 
Q 544 4100 942 4425 
Q 1341 4750 2034 4750 
Q 2731 4750 3128 4425 
Q 3525 4100 3525 3541 
Q 3525 3141 3298 2862 
Q 3072 2584 2669 2484 
Q 3125 2378 3379 2068 
Q 3634 1759 3634 1313 
Q 3634 634 3220 271 
Q 2806 -91 2034 -91 
Q 1263 -91 848 271 
Q 434 634 434 1313 
Q 434 1759 690 2068 
Q 947 2378 1403 2484 
z
M 1172 3481 
Q 1172 3119 1398 2916 
Q 1625 2713 2034 2713 
Q 2441 2713 2670 2916 
Q 2900 3119 2900 3481 
Q 2900 3844 2670 4047 
Q 2441 4250 2034 4250 
Q 1625 4250 1398 4047 
Q 1172 3844 1172 3481 
z
" transform="scale(0.015625)"/>
       </defs>
       <use xlink:href="#DejaVuSans-38"/>
       <use xlink:href="#DejaVuSans-30" x="63.623047"/>
      </g>
     </g>
    </g>
    <g id="xtick_6">
     <g id="line2d_6">
      <g>
       <use xlink:href="#m9c97eafebb" x="398.487273" y="307.584" style="stroke: #000000; stroke-width: 0.8"/>
      </g>
     </g>
     <g id="text_6">
      <!-- 100 -->
      <g transform="translate(388.943523 322.182437) scale(0.1 -0.1)">
       <defs>
        <path id="DejaVuSans-31" d="M 794 531 
L 1825 531 
L 1825 4091 
L 703 3866 
L 703 4441 
L 1819 4666 
L 2450 4666 
L 2450 531 
L 3481 531 
L 3481 0 
L 794 0 
L 794 531 
z
" transform="scale(0.015625)"/>
       </defs>
       <use xlink:href="#DejaVuSans-31"/>
       <use xlink:href="#DejaVuSans-30" x="63.623047"/>
       <use xlink:href="#DejaVuSans-30" x="127.246094"/>
      </g>
     </g>
    </g>
    <g id="text_7">
     <!-- Epoch -->
     <g transform="translate(220.849063 335.860562) scale(0.1 -0.1)">
      <defs>
       <path id="DejaVuSans-45" d="M 628 4666 
L 3578 4666 
L 3578 4134 
L 1259 4134 
L 1259 2753 
L 3481 2753 
L 3481 2222 
L 1259 2222 
L 1259 531 
L 3634 531 
L 3634 0 
L 628 0 
L 628 4666 
z
" transform="scale(0.015625)"/>
       <path id="DejaVuSans-70" d="M 1159 525 
L 1159 -1331 
L 581 -1331 
L 581 3500 
L 1159 3500 
L 1159 2969 
Q 1341 3281 1617 3432 
Q 1894 3584 2278 3584 
Q 2916 3584 3314 3078 
Q 3713 2572 3713 1747 
Q 3713 922 3314 415 
Q 2916 -91 2278 -91 
Q 1894 -91 1617 61 
Q 1341 213 1159 525 
z
M 3116 1747 
Q 3116 2381 2855 2742 
Q 2594 3103 2138 3103 
Q 1681 3103 1420 2742 
Q 1159 2381 1159 1747 
Q 1159 1113 1420 752 
Q 1681 391 2138 391 
Q 2594 391 2855 752 
Q 3116 1113 3116 1747 
z
" transform="scale(0.015625)"/>
       <path id="DejaVuSans-6f" d="M 1959 3097 
Q 1497 3097 1228 2736 
Q 959 2375 959 1747 
Q 959 1119 1226 758 
Q 1494 397 1959 397 
Q 2419 397 2687 759 
Q 2956 1122 2956 1747 
Q 2956 2369 2687 2733 
Q 2419 3097 1959 3097 
z
M 1959 3584 
Q 2709 3584 3137 3096 
Q 3566 2609 3566 1747 
Q 3566 888 3137 398 
Q 2709 -91 1959 -91 
Q 1206 -91 779 398 
Q 353 888 353 1747 
Q 353 2609 779 3096 
Q 1206 3584 1959 3584 
z
" transform="scale(0.015625)"/>
       <path id="DejaVuSans-63" d="M 3122 3366 
L 3122 2828 
Q 2878 2963 2633 3030 
Q 2388 3097 2138 3097 
Q 1578 3097 1268 2742 
Q 959 2388 959 1747 
Q 959 1106 1268 751 
Q 1578 397 2138 397 
Q 2388 397 2633 464 
Q 2878 531 3122 666 
L 3122 134 
Q 2881 22 2623 -34 
Q 2366 -91 2075 -91 
Q 1284 -91 818 406 
Q 353 903 353 1747 
Q 353 2603 823 3093 
Q 1294 3584 2113 3584 
Q 2378 3584 2631 3529 
Q 2884 3475 3122 3366 
z
" transform="scale(0.015625)"/>
       <path id="DejaVuSans-68" d="M 3513 2113 
L 3513 0 
L 2938 0 
L 2938 2094 
Q 2938 2591 2744 2837 
Q 2550 3084 2163 3084 
Q 1697 3084 1428 2787 
Q 1159 2491 1159 1978 
L 1159 0 
L 581 0 
L 581 4863 
L 1159 4863 
L 1159 2956 
Q 1366 3272 1645 3428 
Q 1925 3584 2291 3584 
Q 2894 3584 3203 3211 
Q 3513 2838 3513 2113 
z
" transform="scale(0.015625)"/>
      </defs>
      <use xlink:href="#DejaVuSans-45"/>
      <use xlink:href="#DejaVuSans-70" x="63.183594"/>
      <use xlink:href="#DejaVuSans-6f" x="126.660156"/>
      <use xlink:href="#DejaVuSans-63" x="187.841797"/>
      <use xlink:href="#DejaVuSans-68" x="242.822266"/>
     </g>
    </g>
   </g>
   <g id="matplotlib.axis_2">
    <g id="ytick_1">
     <g id="line2d_7">
      <defs>
       <path id="m4e6cd55350" d="M 0 0 
L -3.5 0 
" style="stroke: #000000; stroke-width: 0.8"/>
      </defs>
      <g>
       <use xlink:href="#m4e6cd55350" x="57.6" y="300.116867" style="stroke: #000000; stroke-width: 0.8"/>
      </g>
     </g>
     <g id="text_8">
      <!-- 0.914 -->
      <g transform="translate(21.971875 303.916086) scale(0.1 -0.1)">
       <defs>
        <path id="DejaVuSans-2e" d="M 684 794 
L 1344 794 
L 1344 0 
L 684 0 
L 684 794 
z
" transform="scale(0.015625)"/>
        <path id="DejaVuSans-39" d="M 703 97 
L 703 672 
Q 941 559 1184 500 
Q 1428 441 1663 441 
Q 2288 441 2617 861 
Q 2947 1281 2994 2138 
Q 2813 1869 2534 1725 
Q 2256 1581 1919 1581 
Q 1219 1581 811 2004 
Q 403 2428 403 3163 
Q 403 3881 828 4315 
Q 1253 4750 1959 4750 
Q 2769 4750 3195 4129 
Q 3622 3509 3622 2328 
Q 3622 1225 3098 567 
Q 2575 -91 1691 -91 
Q 1453 -91 1209 -44 
Q 966 3 703 97 
z
M 1959 2075 
Q 2384 2075 2632 2365 
Q 2881 2656 2881 3163 
Q 2881 3666 2632 3958 
Q 2384 4250 1959 4250 
Q 1534 4250 1286 3958 
Q 1038 3666 1038 3163 
Q 1038 2656 1286 2365 
Q 1534 2075 1959 2075 
z
" transform="scale(0.015625)"/>
       </defs>
       <use xlink:href="#DejaVuSans-30"/>
       <use xlink:href="#DejaVuSans-2e" x="63.623047"/>
       <use xlink:href="#DejaVuSans-39" x="95.410156"/>
       <use xlink:href="#DejaVuSans-31" x="159.033203"/>
       <use xlink:href="#DejaVuSans-34" x="222.65625"/>
      </g>
     </g>
    </g>
    <g id="ytick_2">
     <g id="line2d_8">
      <g>
       <use xlink:href="#m4e6cd55350" x="57.6" y="268.775488" style="stroke: #000000; stroke-width: 0.8"/>
      </g>
     </g>
     <g id="text_9">
      <!-- 0.916 -->
      <g transform="translate(21.971875 272.574706) scale(0.1 -0.1)">
       <use xlink:href="#DejaVuSans-30"/>
       <use xlink:href="#DejaVuSans-2e" x="63.623047"/>
       <use xlink:href="#DejaVuSans-39" x="95.410156"/>
       <use xlink:href="#DejaVuSans-31" x="159.033203"/>
       <use xlink:href="#DejaVuSans-36" x="222.65625"/>
      </g>
     </g>
    </g>
    <g id="ytick_3">
     <g id="line2d_9">
      <g>
       <use xlink:href="#m4e6cd55350" x="57.6" y="237.434108" style="stroke: #000000; stroke-width: 0.8"/>
      </g>
     </g>
     <g id="text_10">
      <!-- 0.918 -->
      <g transform="translate(21.971875 241.233327) scale(0.1 -0.1)">
       <use xlink:href="#DejaVuSans-30"/>
       <use xlink:href="#DejaVuSans-2e" x="63.623047"/>
       <use xlink:href="#DejaVuSans-39" x="95.410156"/>
       <use xlink:href="#DejaVuSans-31" x="159.033203"/>
       <use xlink:href="#DejaVuSans-38" x="222.65625"/>
      </g>
     </g>
    </g>
    <g id="ytick_4">
     <g id="line2d_10">
      <g>
       <use xlink:href="#m4e6cd55350" x="57.6" y="206.092728" style="stroke: #000000; stroke-width: 0.8"/>
      </g>
     </g>
     <g id="text_11">
      <!-- 0.920 -->
      <g transform="translate(21.971875 209.891947) scale(0.1 -0.1)">
       <use xlink:href="#DejaVuSans-30"/>
       <use xlink:href="#DejaVuSans-2e" x="63.623047"/>
       <use xlink:href="#DejaVuSans-39" x="95.410156"/>
       <use xlink:href="#DejaVuSans-32" x="159.033203"/>
       <use xlink:href="#DejaVuSans-30" x="222.65625"/>
      </g>
     </g>
    </g>
    <g id="ytick_5">
     <g id="line2d_11">
      <g>
       <use xlink:href="#m4e6cd55350" x="57.6" y="174.751349" style="stroke: #000000; stroke-width: 0.8"/>
      </g>
     </g>
     <g id="text_12">
      <!-- 0.922 -->
      <g transform="translate(21.971875 178.550567) scale(0.1 -0.1)">
       <use xlink:href="#DejaVuSans-30"/>
       <use xlink:href="#DejaVuSans-2e" x="63.623047"/>
       <use xlink:href="#DejaVuSans-39" x="95.410156"/>
       <use xlink:href="#DejaVuSans-32" x="159.033203"/>
       <use xlink:href="#DejaVuSans-32" x="222.65625"/>
      </g>
     </g>
    </g>
    <g id="ytick_6">
     <g id="line2d_12">
      <g>
       <use xlink:href="#m4e6cd55350" x="57.6" y="143.409969" style="stroke: #000000; stroke-width: 0.8"/>
      </g>
     </g>
     <g id="text_13">
      <!-- 0.924 -->
      <g transform="translate(21.971875 147.209188) scale(0.1 -0.1)">
       <use xlink:href="#DejaVuSans-30"/>
       <use xlink:href="#DejaVuSans-2e" x="63.623047"/>
       <use xlink:href="#DejaVuSans-39" x="95.410156"/>
       <use xlink:href="#DejaVuSans-32" x="159.033203"/>
       <use xlink:href="#DejaVuSans-34" x="222.65625"/>
      </g>
     </g>
    </g>
    <g id="ytick_7">
     <g id="line2d_13">
      <g>
       <use xlink:href="#m4e6cd55350" x="57.6" y="112.068589" style="stroke: #000000; stroke-width: 0.8"/>
      </g>
     </g>
     <g id="text_14">
      <!-- 0.926 -->
      <g transform="translate(21.971875 115.867808) scale(0.1 -0.1)">
       <use xlink:href="#DejaVuSans-30"/>
       <use xlink:href="#DejaVuSans-2e" x="63.623047"/>
       <use xlink:href="#DejaVuSans-39" x="95.410156"/>
       <use xlink:href="#DejaVuSans-32" x="159.033203"/>
       <use xlink:href="#DejaVuSans-36" x="222.65625"/>
      </g>
     </g>
    </g>
    <g id="ytick_8">
     <g id="line2d_14">
      <g>
       <use xlink:href="#m4e6cd55350" x="57.6" y="80.72721" style="stroke: #000000; stroke-width: 0.8"/>
      </g>
     </g>
     <g id="text_15">
      <!-- 0.928 -->
      <g transform="translate(21.971875 84.526428) scale(0.1 -0.1)">
       <use xlink:href="#DejaVuSans-30"/>
       <use xlink:href="#DejaVuSans-2e" x="63.623047"/>
       <use xlink:href="#DejaVuSans-39" x="95.410156"/>
       <use xlink:href="#DejaVuSans-32" x="159.033203"/>
       <use xlink:href="#DejaVuSans-38" x="222.65625"/>
      </g>
     </g>
    </g>
    <g id="ytick_9">
     <g id="line2d_15">
      <g>
       <use xlink:href="#m4e6cd55350" x="57.6" y="49.38583" style="stroke: #000000; stroke-width: 0.8"/>
      </g>
     </g>
     <g id="text_16">
      <!-- 0.930 -->
      <g transform="translate(21.971875 53.185049) scale(0.1 -0.1)">
       <defs>
        <path id="DejaVuSans-33" d="M 2597 2516 
Q 3050 2419 3304 2112 
Q 3559 1806 3559 1356 
Q 3559 666 3084 287 
Q 2609 -91 1734 -91 
Q 1441 -91 1130 -33 
Q 819 25 488 141 
L 488 750 
Q 750 597 1062 519 
Q 1375 441 1716 441 
Q 2309 441 2620 675 
Q 2931 909 2931 1356 
Q 2931 1769 2642 2001 
Q 2353 2234 1838 2234 
L 1294 2234 
L 1294 2753 
L 1863 2753 
Q 2328 2753 2575 2939 
Q 2822 3125 2822 3475 
Q 2822 3834 2567 4026 
Q 2313 4219 1838 4219 
Q 1578 4219 1281 4162 
Q 984 4106 628 3988 
L 628 4550 
Q 988 4650 1302 4700 
Q 1616 4750 1894 4750 
Q 2613 4750 3031 4423 
Q 3450 4097 3450 3541 
Q 3450 3153 3228 2886 
Q 3006 2619 2597 2516 
z
" transform="scale(0.015625)"/>
       </defs>
       <use xlink:href="#DejaVuSans-30"/>
       <use xlink:href="#DejaVuSans-2e" x="63.623047"/>
       <use xlink:href="#DejaVuSans-39" x="95.410156"/>
       <use xlink:href="#DejaVuSans-33" x="159.033203"/>
       <use xlink:href="#DejaVuSans-30" x="222.65625"/>
      </g>
     </g>
    </g>
    <g id="text_17">
     <!-- AUC -->
     <g transform="translate(15.892188 185.099094) rotate(-90) scale(0.1 -0.1)">
      <defs>
       <path id="DejaVuSans-41" d="M 2188 4044 
L 1331 1722 
L 3047 1722 
L 2188 4044 
z
M 1831 4666 
L 2547 4666 
L 4325 0 
L 3669 0 
L 3244 1197 
L 1141 1197 
L 716 0 
L 50 0 
L 1831 4666 
z
" transform="scale(0.015625)"/>
       <path id="DejaVuSans-55" d="M 556 4666 
L 1191 4666 
L 1191 1831 
Q 1191 1081 1462 751 
Q 1734 422 2344 422 
Q 2950 422 3222 751 
Q 3494 1081 3494 1831 
L 3494 4666 
L 4128 4666 
L 4128 1753 
Q 4128 841 3676 375 
Q 3225 -91 2344 -91 
Q 1459 -91 1007 375 
Q 556 841 556 1753 
L 556 4666 
z
" transform="scale(0.015625)"/>
       <path id="DejaVuSans-43" d="M 4122 4306 
L 4122 3641 
Q 3803 3938 3442 4084 
Q 3081 4231 2675 4231 
Q 1875 4231 1450 3742 
Q 1025 3253 1025 2328 
Q 1025 1406 1450 917 
Q 1875 428 2675 428 
Q 3081 428 3442 575 
Q 3803 722 4122 1019 
L 4122 359 
Q 3791 134 3420 21 
Q 3050 -91 2638 -91 
Q 1578 -91 968 557 
Q 359 1206 359 2328 
Q 359 3453 968 4101 
Q 1578 4750 2638 4750 
Q 3056 4750 3426 4639 
Q 3797 4528 4122 4306 
z
" transform="scale(0.015625)"/>
      </defs>
      <use xlink:href="#DejaVuSans-41"/>
      <use xlink:href="#DejaVuSans-55" x="68.408203"/>
      <use xlink:href="#DejaVuSans-43" x="141.601562"/>
     </g>
    </g>
   </g>
   <g id="line2d_16">
    <path d="M 73.832727 181.189461 
L 77.112066 247.400084 
L 80.391405 208.78582 
L 83.670744 201.191334 
L 86.950083 222.204056 
L 90.229421 161.431557 
L 93.50876 196.242895 
L 96.788099 161.829425 
L 100.067438 166.356386 
L 103.346777 188.53036 
L 106.626116 174.93986 
L 109.905455 152.158152 
L 113.184793 193.428082 
L 116.464132 171.717559 
L 119.743471 167.944364 
L 123.02281 146.448078 
L 126.302149 142.56208 
L 129.581488 132.081078 
L 132.860826 178.720926 
L 136.140165 152.923284 
L 139.419504 140.71352 
L 142.698843 155.74072 
L 145.978182 181.293519 
L 149.257521 192.131292 
L 152.53686 174.828806 
L 155.816198 178.776015 
L 159.095537 177.857856 
L 162.374876 167.912884 
L 165.654215 209.70223 
L 168.933554 163.871236 
L 172.212893 161.788327 
L 175.492231 147.820944 
L 178.77157 117.533069 
L 182.050909 135.640036 
L 185.330248 121.966465 
L 188.609587 145.988124 
L 191.888926 174.157239 
L 195.168264 163.769801 
L 198.447603 161.251423 
L 201.726942 171.901191 
L 205.006281 133.29742 
L 208.28562 148.546727 
L 211.564959 152.403869 
L 214.844298 134.052059 
L 218.123636 161.717498 
L 221.402975 174.980958 
L 224.682314 132.968631 
L 227.961653 115.089892 
L 231.240992 161.303014 
L 234.520331 144.073107 
L 237.799669 126.396363 
L 241.079008 142.56995 
L 244.358347 153.871174 
L 247.637686 125.157285 
L 250.917025 111.986515 
L 254.196364 154.632809 
L 257.475702 109.84327 
L 260.755041 128.864898 
L 264.03438 114.201464 
L 267.313719 141.657912 
L 270.593058 129.455143 
L 273.872397 124.748049 
L 277.151736 121.490771 
L 280.431074 118.926047 
L 283.710413 112.674697 
L 286.989752 119.609857 
L 290.269091 87.199723 
L 293.54843 122.873256 
L 296.827769 108.680268 
L 300.107107 113.201982 
L 303.386446 105.577766 
L 306.665785 98.386396 
L 309.945124 109.152464 
L 313.224463 117.982529 
L 316.503802 85.162284 
L 319.78314 126.856316 
L 323.062479 100.254193 
L 326.341818 111.343803 
L 329.621157 109.842395 
L 332.900496 88.682768 
L 336.179835 95.627547 
L 339.459174 96.242276 
L 342.738512 108.152983 
L 346.017851 102.210309 
L 349.29719 82.246037 
L 352.576529 111.852726 
L 355.855868 103.907591 
L 359.135207 88.661781 
L 362.414545 109.188316 
L 365.693884 97.403528 
L 368.973223 63.933577 
L 372.252562 69.625287 
L 375.531901 64.677722 
L 378.81124 88.179092 
L 382.090579 93.771117 
L 385.369917 87.056315 
L 388.649256 65.306443 
L 391.928595 86.688177 
L 395.207934 82.687628 
L 398.487273 88.239428 
" clip-path="url(#p7634ae79d3)" style="fill: none; stroke: #1f77b4; stroke-width: 1.5; stroke-linecap: square"/>
   </g>
   <g id="line2d_17">
    <path d="M 73.832727 193.306535 
L 77.112066 295.488 
L 80.391405 173.557375 
L 83.670744 202.389313 
L 86.950083 124.153432 
L 90.229421 127.925753 
L 93.50876 155.589443 
L 96.788099 173.475178 
L 100.067438 167.591091 
L 103.346777 240.645933 
L 106.626116 201.750099 
L 109.905455 151.249612 
L 113.184793 158.134055 
L 116.464132 162.051532 
L 119.743471 181.272533 
L 123.02281 141.69289 
L 126.302149 186.983481 
L 129.581488 170.286106 
L 132.860826 167.400464 
L 136.140165 161.762968 
L 139.419504 164.443118 
L 142.698843 174.55161 
L 145.978182 144.436873 
L 149.257521 158.258225 
L 152.53686 145.27196 
L 155.816198 150.819389 
L 159.095537 157.592778 
L 162.374876 136.552949 
L 165.654215 161.376467 
L 168.933554 155.895496 
L 172.212893 177.896331 
L 175.492231 155.908612 
L 178.77157 174.523628 
L 182.050909 156.096616 
L 185.330248 178.424491 
L 188.609587 173.267936 
L 191.888926 138.873705 
L 195.168264 151.957906 
L 198.447603 151.241742 
L 201.726942 146.302047 
L 205.006281 170.701464 
L 208.28562 156.313477 
L 211.564959 138.769647 
L 214.844298 144.582029 
L 218.123636 216.612031 
L 221.402975 176.141336 
L 224.682314 171.838232 
L 227.961653 129.073889 
L 231.240992 139.717536 
L 234.520331 153.510906 
L 237.799669 113.969738 
L 241.079008 117.786656 
L 244.358347 131.17691 
L 247.637686 127.998331 
L 250.917025 112.572388 
L 254.196364 122.679131 
L 257.475702 119.201495 
L 260.755041 107.1159 
L 264.03438 141.34224 
L 267.313719 137.819133 
L 270.593058 126.24421 
L 273.872397 142.172955 
L 277.151736 122.521732 
L 280.431074 116.45139 
L 283.710413 107.15525 
L 286.989752 121.483775 
L 290.269091 106.181127 
L 293.54843 135.07515 
L 296.827769 100.297915 
L 300.107107 102.588065 
L 303.386446 127.886403 
L 306.665785 109.789929 
L 309.945124 85.471835 
L 313.224463 145.113687 
L 316.503802 100.548878 
L 319.78314 113.574492 
L 323.062479 93.290177 
L 326.341818 101.932238 
L 329.621157 108.896254 
L 332.900496 73.020726 
L 336.179835 78.589141 
L 339.459174 112.713172 
L 342.738512 77.663112 
L 346.017851 105.782384 
L 349.29719 93.470311 
L 352.576529 94.770598 
L 355.855868 94.231071 
L 359.135207 95.137862 
L 362.414545 102.932594 
L 365.693884 131.757536 
L 368.973223 84.87372 
L 372.252562 112.082703 
L 375.531901 93.335647 
L 378.81124 83.081124 
L 382.090579 86.118918 
L 385.369917 103.058513 
L 388.649256 95.652031 
L 391.928595 94.54237 
L 395.207934 102.611675 
L 398.487273 113.448573 
" clip-path="url(#p7634ae79d3)" style="fill: none; stroke: #ff7f0e; stroke-width: 1.5; stroke-linecap: square"/>
   </g>
   <g id="line2d_18">
    <path d="M 73.832727 275.526351 
L 77.112066 281.740975 
L 80.391405 249.967432 
L 83.670744 206.619839 
L 86.950083 214.098025 
L 90.229421 151.638736 
L 93.50876 171.999128 
L 96.788099 172.583252 
L 100.067438 107.280295 
L 103.346777 150.925196 
L 106.626116 172.487938 
L 109.905455 131.9298 
L 113.184793 128.608688 
L 116.464132 123.925203 
L 119.743471 108.315628 
L 123.02281 146.541643 
L 126.302149 143.37793 
L 129.581488 149.944952 
L 132.860826 154.172855 
L 136.140165 140.253566 
L 139.419504 116.463632 
L 142.698843 113.654066 
L 145.978182 116.364821 
L 149.257521 128.576334 
L 152.53686 142.091633 
L 155.816198 116.334216 
L 159.095537 125.577015 
L 162.374876 130.019155 
L 165.654215 132.263835 
L 168.933554 112.960638 
L 172.212893 150.39791 
L 175.492231 126.952504 
L 178.77157 144.113331 
L 182.050909 132.117804 
L 185.330248 106.427718 
L 188.609587 132.775381 
L 191.888926 151.403513 
L 195.168264 88.617185 
L 198.447603 134.122888 
L 201.726942 98.47996 
L 205.006281 118.040242 
L 208.28562 129.847765 
L 211.564959 102.314367 
L 214.844298 123.014915 
L 218.123636 128.530863 
L 221.402975 100.983474 
L 224.682314 105.239359 
L 227.961653 100.001481 
L 231.240992 112.099317 
L 234.520331 105.861958 
L 237.799669 97.585411 
L 241.079008 125.609369 
L 244.358347 108.828048 
L 247.637686 147.02783 
L 250.917025 113.460816 
L 254.196364 105.508685 
L 257.475702 94.588716 
L 260.755041 96.20555 
L 264.03438 68.272533 
L 267.313719 70.116721 
L 270.593058 113.208103 
L 273.872397 85.893314 
L 277.151736 89.726846 
L 280.431074 86.404859 
L 283.710413 122.894242 
L 286.989752 78.455352 
L 290.269091 71.335686 
L 293.54843 65.775141 
L 296.827769 81.021825 
L 300.107107 101.432934 
L 303.386446 98.422247 
L 306.665785 79.046472 
L 309.945124 85.923919 
L 313.224463 82.56783 
L 316.503802 98.143302 
L 319.78314 69.784435 
L 323.062479 58.073974 
L 326.341818 109.739212 
L 329.621157 102.850397 
L 332.900496 117.496342 
L 336.179835 90.703592 
L 339.459174 100.170247 
L 342.738512 93.530647 
L 346.017851 85.895063 
L 349.29719 91.311326 
L 352.576529 83.467625 
L 355.855868 103.392548 
L 359.135207 74.072674 
L 362.414545 92.225987 
L 365.693884 71.975774 
L 368.973223 53.568 
L 372.252562 81.633931 
L 375.531901 84.887711 
L 378.81124 87.655304 
L 382.090579 115.824419 
L 385.369917 78.165039 
L 388.649256 75.854777 
L 391.928595 66.414354 
L 395.207934 73.62846 
L 398.487273 63.018915 
" clip-path="url(#p7634ae79d3)" style="fill: none; stroke: #2ca02c; stroke-width: 1.5; stroke-linecap: square"/>
   </g>
   <g id="line2d_19">
    <path d="M 73.832727 184.967904 
L 77.112066 239.933267 
L 80.391405 219.334153 
L 83.670744 165.212622 
L 86.950083 126.609725 
L 90.229421 133.123407 
L 93.50876 146.353639 
L 96.788099 111.982143 
L 100.067438 119.359768 
L 103.346777 110.412528 
L 106.626116 138.721552 
L 109.905455 114.391217 
L 113.184793 133.768741 
L 116.464132 142.044413 
L 119.743471 117.250626 
L 123.02281 126.422596 
L 126.302149 142.916227 
L 129.581488 132.617108 
L 132.860826 121.517004 
L 136.140165 143.349948 
L 139.419504 113.092678 
L 142.698843 113.632205 
L 145.978182 115.467649 
L 149.257521 118.23087 
L 152.53686 120.573486 
L 155.816198 95.846156 
L 159.095537 110.332954 
L 162.374876 86.402236 
L 165.654215 83.982669 
L 168.933554 100.423834 
L 172.212893 109.845893 
L 175.492231 115.398568 
L 178.77157 107.829441 
L 182.050909 103.061136 
L 185.330248 105.224493 
L 188.609587 90.910833 
L 191.888926 98.340925 
L 195.168264 118.967146 
L 198.447603 112.433352 
L 201.726942 135.420553 
L 205.006281 103.960057 
L 208.28562 116.846636 
L 211.564959 103.530709 
L 214.844298 121.510883 
L 218.123636 110.897841 
L 221.402975 89.156713 
L 224.682314 92.073835 
L 227.961653 101.190715 
L 231.240992 88.900503 
L 234.520331 68.526994 
L 237.799669 87.302032 
L 241.079008 95.0784 
L 244.358347 99.131416 
L 247.637686 88.53149 
L 250.917025 79.168893 
L 254.196364 80.296917 
L 257.475702 101.003586 
L 260.755041 87.998958 
L 264.03438 99.828342 
L 267.313719 93.695041 
L 270.593058 110.329457 
L 273.872397 77.51096 
L 277.151736 86.919903 
L 280.431074 86.510666 
L 283.710413 111.192526 
L 286.989752 64.427633 
L 290.269091 71.941671 
L 293.54843 99.022111 
L 296.827769 93.472934 
L 300.107107 73.002363 
L 303.386446 88.492141 
L 306.665785 84.110337 
L 309.945124 84.603519 
L 313.224463 98.152046 
L 316.503802 72.267836 
L 319.78314 71.730932 
L 323.062479 71.739676 
L 326.341818 87.199723 
L 329.621157 97.605523 
L 332.900496 113.61734 
L 336.179835 80.410594 
L 339.459174 92.490941 
L 342.738512 96.111985 
L 346.017851 95.287391 
L 349.29719 94.315017 
L 352.576529 89.385815 
L 355.855868 106.051711 
L 359.135207 98.522808 
L 362.414545 105.459717 
L 365.693884 93.035715 
L 368.973223 84.784528 
L 372.252562 83.744822 
L 375.531901 95.029432 
L 378.81124 90.3031 
L 382.090579 81.491398 
L 385.369917 90.830385 
L 388.649256 69.679502 
L 391.928595 75.98157 
L 395.207934 82.154221 
L 398.487273 55.904496 
" clip-path="url(#p7634ae79d3)" style="fill: none; stroke: #d62728; stroke-width: 1.5; stroke-linecap: square"/>
   </g>
   <g id="patch_3">
    <path d="M 57.6 307.584 
L 57.6 41.472 
" style="fill: none; stroke: #000000; stroke-width: 0.8; stroke-linejoin: miter; stroke-linecap: square"/>
   </g>
   <g id="patch_4">
    <path d="M 414.72 307.584 
L 414.72 41.472 
" style="fill: none; stroke: #000000; stroke-width: 0.8; stroke-linejoin: miter; stroke-linecap: square"/>
   </g>
   <g id="patch_5">
    <path d="M 57.6 307.584 
L 414.72 307.584 
" style="fill: none; stroke: #000000; stroke-width: 0.8; stroke-linejoin: miter; stroke-linecap: square"/>
   </g>
   <g id="patch_6">
    <path d="M 57.6 41.472 
L 414.72 41.472 
" style="fill: none; stroke: #000000; stroke-width: 0.8; stroke-linejoin: miter; stroke-linecap: square"/>
   </g>
   <g id="legend_1">
    <g id="patch_7">
     <path d="M 342.712188 302.584 
L 407.72 302.584 
Q 409.72 302.584 409.72 300.584 
L 409.72 242.31525 
Q 409.72 240.31525 407.72 240.31525 
L 342.712188 240.31525 
Q 340.712188 240.31525 340.712188 242.31525 
L 340.712188 300.584 
Q 340.712188 302.584 342.712188 302.584 
z
" style="fill: #ffffff; opacity: 0.8; stroke: #cccccc; stroke-linejoin: miter"/>
    </g>
    <g id="line2d_20">
     <path d="M 344.712188 248.413687 
L 354.712188 248.413687 
L 364.712188 248.413687 
" style="fill: none; stroke: #1f77b4; stroke-width: 1.5; stroke-linecap: square"/>
    </g>
    <g id="text_18">
     <!-- All -->
     <g transform="translate(372.712188 251.913687) scale(0.1 -0.1)">
      <defs>
       <path id="DejaVuSans-6c" d="M 603 4863 
L 1178 4863 
L 1178 0 
L 603 0 
L 603 4863 
z
" transform="scale(0.015625)"/>
      </defs>
      <use xlink:href="#DejaVuSans-41"/>
      <use xlink:href="#DejaVuSans-6c" x="68.408203"/>
      <use xlink:href="#DejaVuSans-6c" x="96.191406"/>
     </g>
    </g>
    <g id="line2d_21">
     <path d="M 344.712188 263.091812 
L 354.712188 263.091812 
L 364.712188 263.091812 
" style="fill: none; stroke: #ff7f0e; stroke-width: 1.5; stroke-linecap: square"/>
    </g>
    <g id="text_19">
     <!-- HM -->
     <g transform="translate(372.712188 266.591812) scale(0.1 -0.1)">
      <defs>
       <path id="DejaVuSans-48" d="M 628 4666 
L 1259 4666 
L 1259 2753 
L 3553 2753 
L 3553 4666 
L 4184 4666 
L 4184 0 
L 3553 0 
L 3553 2222 
L 1259 2222 
L 1259 0 
L 628 0 
L 628 4666 
z
" transform="scale(0.015625)"/>
       <path id="DejaVuSans-4d" d="M 628 4666 
L 1569 4666 
L 2759 1491 
L 3956 4666 
L 4897 4666 
L 4897 0 
L 4281 0 
L 4281 4097 
L 3078 897 
L 2444 897 
L 1241 4097 
L 1241 0 
L 628 0 
L 628 4666 
z
" transform="scale(0.015625)"/>
      </defs>
      <use xlink:href="#DejaVuSans-48"/>
      <use xlink:href="#DejaVuSans-4d" x="75.195312"/>
     </g>
    </g>
    <g id="line2d_22">
     <path d="M 344.712188 277.769937 
L 354.712188 277.769937 
L 364.712188 277.769937 
" style="fill: none; stroke: #2ca02c; stroke-width: 1.5; stroke-linecap: square"/>
    </g>
    <g id="text_20">
     <!-- HM_D -->
     <g transform="translate(372.712188 281.269937) scale(0.1 -0.1)">
      <defs>
       <path id="DejaVuSans-5f" d="M 3263 -1063 
L 3263 -1509 
L -63 -1509 
L -63 -1063 
L 3263 -1063 
z
" transform="scale(0.015625)"/>
       <path id="DejaVuSans-44" d="M 1259 4147 
L 1259 519 
L 2022 519 
Q 2988 519 3436 956 
Q 3884 1394 3884 2338 
Q 3884 3275 3436 3711 
Q 2988 4147 2022 4147 
L 1259 4147 
z
M 628 4666 
L 1925 4666 
Q 3281 4666 3915 4102 
Q 4550 3538 4550 2338 
Q 4550 1131 3912 565 
Q 3275 0 1925 0 
L 628 0 
L 628 4666 
z
" transform="scale(0.015625)"/>
      </defs>
      <use xlink:href="#DejaVuSans-48"/>
      <use xlink:href="#DejaVuSans-4d" x="75.195312"/>
      <use xlink:href="#DejaVuSans-5f" x="161.474609"/>
      <use xlink:href="#DejaVuSans-44" x="211.474609"/>
     </g>
    </g>
    <g id="line2d_23">
     <path d="M 344.712188 292.726187 
L 354.712188 292.726187 
L 364.712188 292.726187 
" style="fill: none; stroke: #d62728; stroke-width: 1.5; stroke-linecap: square"/>
    </g>
    <g id="text_21">
     <!-- HM_TF -->
     <g transform="translate(372.712188 296.226187) scale(0.1 -0.1)">
      <defs>
       <path id="DejaVuSans-54" d="M -19 4666 
L 3928 4666 
L 3928 4134 
L 2272 4134 
L 2272 0 
L 1638 0 
L 1638 4134 
L -19 4134 
L -19 4666 
z
" transform="scale(0.015625)"/>
       <path id="DejaVuSans-46" d="M 628 4666 
L 3309 4666 
L 3309 4134 
L 1259 4134 
L 1259 2759 
L 3109 2759 
L 3109 2228 
L 1259 2228 
L 1259 0 
L 628 0 
L 628 4666 
z
" transform="scale(0.015625)"/>
      </defs>
      <use xlink:href="#DejaVuSans-48"/>
      <use xlink:href="#DejaVuSans-4d" x="75.195312"/>
      <use xlink:href="#DejaVuSans-5f" x="161.474609"/>
      <use xlink:href="#DejaVuSans-54" x="211.474609"/>
      <use xlink:href="#DejaVuSans-46" x="272.558594"/>
     </g>
    </g>
   </g>
  </g>
 </g>
 <defs>
  <clipPath id="p7634ae79d3">
   <rect x="57.6" y="41.472" width="357.12" height="266.112"/>
  </clipPath>
 </defs>
</svg>
