<?xml version="1.0" encoding="utf-8" standalone="no"?>
<!DOCTYPE svg PUBLIC "-//W3C//DTD SVG 1.1//EN"
  "http://www.w3.org/Graphics/SVG/1.1/DTD/svg11.dtd">
<svg xmlns:xlink="http://www.w3.org/1999/xlink" width="460.8pt" height="345.6pt" viewBox="0 0 460.8 345.6" xmlns="http://www.w3.org/2000/svg" version="1.1">
 <metadata>
  <rdf:RDF xmlns:dc="http://purl.org/dc/elements/1.1/" xmlns:cc="http://creativecommons.org/ns#" xmlns:rdf="http://www.w3.org/1999/02/22-rdf-syntax-ns#">
   <cc:Work>
    <dc:type rdf:resource="http://purl.org/dc/dcmitype/StillImage"/>
    <dc:date>2025-05-10T16:55:59.172719</dc:date>
    <dc:format>image/svg+xml</dc:format>
    <dc:creator>
     <cc:Agent>
      <dc:title>Matplotlib v3.8.4, https://matplotlib.org/</dc:title>
     </cc:Agent>
    </dc:creator>
   </cc:Work>
  </rdf:RDF>
 </metadata>
 <defs>
  <style type="text/css">*{stroke-linejoin: round; stroke-linecap: butt}</style>
 </defs>
 <g id="figure_1">
  <g id="patch_1">
   <path d="M 0 345.6 
L 460.8 345.6 
L 460.8 0 
L 0 0 
z
" style="fill: #ffffff"/>
  </g>
  <g id="axes_1">
   <g id="patch_2">
    <path d="M 57.6 307.584 
L 414.72 307.584 
L 414.72 41.472 
L 57.6 41.472 
z
" style="fill: #ffffff"/>
   </g>
   <g id="matplotlib.axis_1">
    <g id="xtick_1">
     <g id="line2d_1">
      <defs>
       <path id="m98e8121bc7" d="M 0 0 
L 0 3.5 
" style="stroke: #000000; stroke-width: 0.8"/>
      </defs>
      <g>
       <use xlink:href="#m98e8121bc7" x="70.553388" y="307.584" style="stroke: #000000; stroke-width: 0.8"/>
      </g>
     </g>
     <g id="text_1">
      <!-- 0 -->
      <g transform="translate(67.372138 322.182437) scale(0.1 -0.1)">
       <defs>
        <path id="DejaVuSans-30" d="M 2034 4250 
Q 1547 4250 1301 3770 
Q 1056 3291 1056 2328 
Q 1056 1369 1301 889 
Q 1547 409 2034 409 
Q 2525 409 2770 889 
Q 3016 1369 3016 2328 
Q 3016 3291 2770 3770 
Q 2525 4250 2034 4250 
z
M 2034 4750 
Q 2819 4750 3233 4129 
Q 3647 3509 3647 2328 
Q 3647 1150 3233 529 
Q 2819 -91 2034 -91 
Q 1250 -91 836 529 
Q 422 1150 422 2328 
Q 422 3509 836 4129 
Q 1250 4750 2034 4750 
z
" transform="scale(0.015625)"/>
       </defs>
       <use xlink:href="#DejaVuSans-30"/>
      </g>
     </g>
    </g>
    <g id="xtick_2">
     <g id="line2d_2">
      <g>
       <use xlink:href="#m98e8121bc7" x="136.140165" y="307.584" style="stroke: #000000; stroke-width: 0.8"/>
      </g>
     </g>
     <g id="text_2">
      <!-- 20 -->
      <g transform="translate(129.777665 322.182437) scale(0.1 -0.1)">
       <defs>
        <path id="DejaVuSans-32" d="M 1228 531 
L 3431 531 
L 3431 0 
L 469 0 
L 469 531 
Q 828 903 1448 1529 
Q 2069 2156 2228 2338 
Q 2531 2678 2651 2914 
Q 2772 3150 2772 3378 
Q 2772 3750 2511 3984 
Q 2250 4219 1831 4219 
Q 1534 4219 1204 4116 
Q 875 4013 500 3803 
L 500 4441 
Q 881 4594 1212 4672 
Q 1544 4750 1819 4750 
Q 2544 4750 2975 4387 
Q 3406 4025 3406 3419 
Q 3406 3131 3298 2873 
Q 3191 2616 2906 2266 
Q 2828 2175 2409 1742 
Q 1991 1309 1228 531 
z
" transform="scale(0.015625)"/>
       </defs>
       <use xlink:href="#DejaVuSans-32"/>
       <use xlink:href="#DejaVuSans-30" x="63.623047"/>
      </g>
     </g>
    </g>
    <g id="xtick_3">
     <g id="line2d_3">
      <g>
       <use xlink:href="#m98e8121bc7" x="201.726942" y="307.584" style="stroke: #000000; stroke-width: 0.8"/>
      </g>
     </g>
     <g id="text_3">
      <!-- 40 -->
      <g transform="translate(195.364442 322.182437) scale(0.1 -0.1)">
       <defs>
        <path id="DejaVuSans-34" d="M 2419 4116 
L 825 1625 
L 2419 1625 
L 2419 4116 
z
M 2253 4666 
L 3047 4666 
L 3047 1625 
L 3713 1625 
L 3713 1100 
L 3047 1100 
L 3047 0 
L 2419 0 
L 2419 1100 
L 313 1100 
L 313 1709 
L 2253 4666 
z
" transform="scale(0.015625)"/>
       </defs>
       <use xlink:href="#DejaVuSans-34"/>
       <use xlink:href="#DejaVuSans-30" x="63.623047"/>
      </g>
     </g>
    </g>
    <g id="xtick_4">
     <g id="line2d_4">
      <g>
       <use xlink:href="#m98e8121bc7" x="267.313719" y="307.584" style="stroke: #000000; stroke-width: 0.8"/>
      </g>
     </g>
     <g id="text_4">
      <!-- 60 -->
      <g transform="translate(260.951219 322.182437) scale(0.1 -0.1)">
       <defs>
        <path id="DejaVuSans-36" d="M 2113 2584 
Q 1688 2584 1439 2293 
Q 1191 2003 1191 1497 
Q 1191 994 1439 701 
Q 1688 409 2113 409 
Q 2538 409 2786 701 
Q 3034 994 3034 1497 
Q 3034 2003 2786 2293 
Q 2538 2584 2113 2584 
z
M 3366 4563 
L 3366 3988 
Q 3128 4100 2886 4159 
Q 2644 4219 2406 4219 
Q 1781 4219 1451 3797 
Q 1122 3375 1075 2522 
Q 1259 2794 1537 2939 
Q 1816 3084 2150 3084 
Q 2853 3084 3261 2657 
Q 3669 2231 3669 1497 
Q 3669 778 3244 343 
Q 2819 -91 2113 -91 
Q 1303 -91 875 529 
Q 447 1150 447 2328 
Q 447 3434 972 4092 
Q 1497 4750 2381 4750 
Q 2619 4750 2861 4703 
Q 3103 4656 3366 4563 
z
" transform="scale(0.015625)"/>
       </defs>
       <use xlink:href="#DejaVuSans-36"/>
       <use xlink:href="#DejaVuSans-30" x="63.623047"/>
      </g>
     </g>
    </g>
    <g id="xtick_5">
     <g id="line2d_5">
      <g>
       <use xlink:href="#m98e8121bc7" x="332.900496" y="307.584" style="stroke: #000000; stroke-width: 0.8"/>
      </g>
     </g>
     <g id="text_5">
      <!-- 80 -->
      <g transform="translate(326.537996 322.182437) scale(0.1 -0.1)">
       <defs>
        <path id="DejaVuSans-38" d="M 2034 2216 
Q 1584 2216 1326 1975 
Q 1069 1734 1069 1313 
Q 1069 891 1326 650 
Q 1584 409 2034 409 
Q 2484 409 2743 651 
Q 3003 894 3003 1313 
Q 3003 1734 2745 1975 
Q 2488 2216 2034 2216 
z
M 1403 2484 
Q 997 2584 770 2862 
Q 544 3141 544 3541 
Q 544 4100 942 4425 
Q 1341 4750 2034 4750 
Q 2731 4750 3128 4425 
Q 3525 4100 3525 3541 
Q 3525 3141 3298 2862 
Q 3072 2584 2669 2484 
Q 3125 2378 3379 2068 
Q 3634 1759 3634 1313 
Q 3634 634 3220 271 
Q 2806 -91 2034 -91 
Q 1263 -91 848 271 
Q 434 634 434 1313 
Q 434 1759 690 2068 
Q 947 2378 1403 2484 
z
M 1172 3481 
Q 1172 3119 1398 2916 
Q 1625 2713 2034 2713 
Q 2441 2713 2670 2916 
Q 2900 3119 2900 3481 
Q 2900 3844 2670 4047 
Q 2441 4250 2034 4250 
Q 1625 4250 1398 4047 
Q 1172 3844 1172 3481 
z
" transform="scale(0.015625)"/>
       </defs>
       <use xlink:href="#DejaVuSans-38"/>
       <use xlink:href="#DejaVuSans-30" x="63.623047"/>
      </g>
     </g>
    </g>
    <g id="xtick_6">
     <g id="line2d_6">
      <g>
       <use xlink:href="#m98e8121bc7" x="398.487273" y="307.584" style="stroke: #000000; stroke-width: 0.8"/>
      </g>
     </g>
     <g id="text_6">
      <!-- 100 -->
      <g transform="translate(388.943523 322.182437) scale(0.1 -0.1)">
       <defs>
        <path id="DejaVuSans-31" d="M 794 531 
L 1825 531 
L 1825 4091 
L 703 3866 
L 703 4441 
L 1819 4666 
L 2450 4666 
L 2450 531 
L 3481 531 
L 3481 0 
L 794 0 
L 794 531 
z
" transform="scale(0.015625)"/>
       </defs>
       <use xlink:href="#DejaVuSans-31"/>
       <use xlink:href="#DejaVuSans-30" x="63.623047"/>
       <use xlink:href="#DejaVuSans-30" x="127.246094"/>
      </g>
     </g>
    </g>
    <g id="text_7">
     <!-- Epoch -->
     <g transform="translate(220.849063 335.860562) scale(0.1 -0.1)">
      <defs>
       <path id="DejaVuSans-45" d="M 628 4666 
L 3578 4666 
L 3578 4134 
L 1259 4134 
L 1259 2753 
L 3481 2753 
L 3481 2222 
L 1259 2222 
L 1259 531 
L 3634 531 
L 3634 0 
L 628 0 
L 628 4666 
z
" transform="scale(0.015625)"/>
       <path id="DejaVuSans-70" d="M 1159 525 
L 1159 -1331 
L 581 -1331 
L 581 3500 
L 1159 3500 
L 1159 2969 
Q 1341 3281 1617 3432 
Q 1894 3584 2278 3584 
Q 2916 3584 3314 3078 
Q 3713 2572 3713 1747 
Q 3713 922 3314 415 
Q 2916 -91 2278 -91 
Q 1894 -91 1617 61 
Q 1341 213 1159 525 
z
M 3116 1747 
Q 3116 2381 2855 2742 
Q 2594 3103 2138 3103 
Q 1681 3103 1420 2742 
Q 1159 2381 1159 1747 
Q 1159 1113 1420 752 
Q 1681 391 2138 391 
Q 2594 391 2855 752 
Q 3116 1113 3116 1747 
z
" transform="scale(0.015625)"/>
       <path id="DejaVuSans-6f" d="M 1959 3097 
Q 1497 3097 1228 2736 
Q 959 2375 959 1747 
Q 959 1119 1226 758 
Q 1494 397 1959 397 
Q 2419 397 2687 759 
Q 2956 1122 2956 1747 
Q 2956 2369 2687 2733 
Q 2419 3097 1959 3097 
z
M 1959 3584 
Q 2709 3584 3137 3096 
Q 3566 2609 3566 1747 
Q 3566 888 3137 398 
Q 2709 -91 1959 -91 
Q 1206 -91 779 398 
Q 353 888 353 1747 
Q 353 2609 779 3096 
Q 1206 3584 1959 3584 
z
" transform="scale(0.015625)"/>
       <path id="DejaVuSans-63" d="M 3122 3366 
L 3122 2828 
Q 2878 2963 2633 3030 
Q 2388 3097 2138 3097 
Q 1578 3097 1268 2742 
Q 959 2388 959 1747 
Q 959 1106 1268 751 
Q 1578 397 2138 397 
Q 2388 397 2633 464 
Q 2878 531 3122 666 
L 3122 134 
Q 2881 22 2623 -34 
Q 2366 -91 2075 -91 
Q 1284 -91 818 406 
Q 353 903 353 1747 
Q 353 2603 823 3093 
Q 1294 3584 2113 3584 
Q 2378 3584 2631 3529 
Q 2884 3475 3122 3366 
z
" transform="scale(0.015625)"/>
       <path id="DejaVuSans-68" d="M 3513 2113 
L 3513 0 
L 2938 0 
L 2938 2094 
Q 2938 2591 2744 2837 
Q 2550 3084 2163 3084 
Q 1697 3084 1428 2787 
Q 1159 2491 1159 1978 
L 1159 0 
L 581 0 
L 581 4863 
L 1159 4863 
L 1159 2956 
Q 1366 3272 1645 3428 
Q 1925 3584 2291 3584 
Q 2894 3584 3203 3211 
Q 3513 2838 3513 2113 
z
" transform="scale(0.015625)"/>
      </defs>
      <use xlink:href="#DejaVuSans-45"/>
      <use xlink:href="#DejaVuSans-70" x="63.183594"/>
      <use xlink:href="#DejaVuSans-6f" x="126.660156"/>
      <use xlink:href="#DejaVuSans-63" x="187.841797"/>
      <use xlink:href="#DejaVuSans-68" x="242.822266"/>
     </g>
    </g>
   </g>
   <g id="matplotlib.axis_2">
    <g id="ytick_1">
     <g id="line2d_7">
      <defs>
       <path id="m6c918f0cfb" d="M 0 0 
L -3.5 0 
" style="stroke: #000000; stroke-width: 0.8"/>
      </defs>
      <g>
       <use xlink:href="#m6c918f0cfb" x="57.6" y="300.648411" style="stroke: #000000; stroke-width: 0.8"/>
      </g>
     </g>
     <g id="text_8">
      <!-- 0.775 -->
      <g transform="translate(21.971875 304.44763) scale(0.1 -0.1)">
       <defs>
        <path id="DejaVuSans-2e" d="M 684 794 
L 1344 794 
L 1344 0 
L 684 0 
L 684 794 
z
" transform="scale(0.015625)"/>
        <path id="DejaVuSans-37" d="M 525 4666 
L 3525 4666 
L 3525 4397 
L 1831 0 
L 1172 0 
L 2766 4134 
L 525 4134 
L 525 4666 
z
" transform="scale(0.015625)"/>
        <path id="DejaVuSans-35" d="M 691 4666 
L 3169 4666 
L 3169 4134 
L 1269 4134 
L 1269 2991 
Q 1406 3038 1543 3061 
Q 1681 3084 1819 3084 
Q 2600 3084 3056 2656 
Q 3513 2228 3513 1497 
Q 3513 744 3044 326 
Q 2575 -91 1722 -91 
Q 1428 -91 1123 -41 
Q 819 9 494 109 
L 494 744 
Q 775 591 1075 516 
Q 1375 441 1709 441 
Q 2250 441 2565 725 
Q 2881 1009 2881 1497 
Q 2881 1984 2565 2268 
Q 2250 2553 1709 2553 
Q 1456 2553 1204 2497 
Q 953 2441 691 2322 
L 691 4666 
z
" transform="scale(0.015625)"/>
       </defs>
       <use xlink:href="#DejaVuSans-30"/>
       <use xlink:href="#DejaVuSans-2e" x="63.623047"/>
       <use xlink:href="#DejaVuSans-37" x="95.410156"/>
       <use xlink:href="#DejaVuSans-37" x="159.033203"/>
       <use xlink:href="#DejaVuSans-35" x="222.65625"/>
      </g>
     </g>
    </g>
    <g id="ytick_2">
     <g id="line2d_8">
      <g>
       <use xlink:href="#m6c918f0cfb" x="57.6" y="266.493138" style="stroke: #000000; stroke-width: 0.8"/>
      </g>
     </g>
     <g id="text_9">
      <!-- 0.800 -->
      <g transform="translate(21.971875 270.292357) scale(0.1 -0.1)">
       <use xlink:href="#DejaVuSans-30"/>
       <use xlink:href="#DejaVuSans-2e" x="63.623047"/>
       <use xlink:href="#DejaVuSans-38" x="95.410156"/>
       <use xlink:href="#DejaVuSans-30" x="159.033203"/>
       <use xlink:href="#DejaVuSans-30" x="222.65625"/>
      </g>
     </g>
    </g>
    <g id="ytick_3">
     <g id="line2d_9">
      <g>
       <use xlink:href="#m6c918f0cfb" x="57.6" y="232.337865" style="stroke: #000000; stroke-width: 0.8"/>
      </g>
     </g>
     <g id="text_10">
      <!-- 0.825 -->
      <g transform="translate(21.971875 236.137084) scale(0.1 -0.1)">
       <use xlink:href="#DejaVuSans-30"/>
       <use xlink:href="#DejaVuSans-2e" x="63.623047"/>
       <use xlink:href="#DejaVuSans-38" x="95.410156"/>
       <use xlink:href="#DejaVuSans-32" x="159.033203"/>
       <use xlink:href="#DejaVuSans-35" x="222.65625"/>
      </g>
     </g>
    </g>
    <g id="ytick_4">
     <g id="line2d_10">
      <g>
       <use xlink:href="#m6c918f0cfb" x="57.6" y="198.182592" style="stroke: #000000; stroke-width: 0.8"/>
      </g>
     </g>
     <g id="text_11">
      <!-- 0.850 -->
      <g transform="translate(21.971875 201.981811) scale(0.1 -0.1)">
       <use xlink:href="#DejaVuSans-30"/>
       <use xlink:href="#DejaVuSans-2e" x="63.623047"/>
       <use xlink:href="#DejaVuSans-38" x="95.410156"/>
       <use xlink:href="#DejaVuSans-35" x="159.033203"/>
       <use xlink:href="#DejaVuSans-30" x="222.65625"/>
      </g>
     </g>
    </g>
    <g id="ytick_5">
     <g id="line2d_11">
      <g>
       <use xlink:href="#m6c918f0cfb" x="57.6" y="164.027319" style="stroke: #000000; stroke-width: 0.8"/>
      </g>
     </g>
     <g id="text_12">
      <!-- 0.875 -->
      <g transform="translate(21.971875 167.826538) scale(0.1 -0.1)">
       <use xlink:href="#DejaVuSans-30"/>
       <use xlink:href="#DejaVuSans-2e" x="63.623047"/>
       <use xlink:href="#DejaVuSans-38" x="95.410156"/>
       <use xlink:href="#DejaVuSans-37" x="159.033203"/>
       <use xlink:href="#DejaVuSans-35" x="222.65625"/>
      </g>
     </g>
    </g>
    <g id="ytick_6">
     <g id="line2d_12">
      <g>
       <use xlink:href="#m6c918f0cfb" x="57.6" y="129.872046" style="stroke: #000000; stroke-width: 0.8"/>
      </g>
     </g>
     <g id="text_13">
      <!-- 0.900 -->
      <g transform="translate(21.971875 133.671265) scale(0.1 -0.1)">
       <defs>
        <path id="DejaVuSans-39" d="M 703 97 
L 703 672 
Q 941 559 1184 500 
Q 1428 441 1663 441 
Q 2288 441 2617 861 
Q 2947 1281 2994 2138 
Q 2813 1869 2534 1725 
Q 2256 1581 1919 1581 
Q 1219 1581 811 2004 
Q 403 2428 403 3163 
Q 403 3881 828 4315 
Q 1253 4750 1959 4750 
Q 2769 4750 3195 4129 
Q 3622 3509 3622 2328 
Q 3622 1225 3098 567 
Q 2575 -91 1691 -91 
Q 1453 -91 1209 -44 
Q 966 3 703 97 
z
M 1959 2075 
Q 2384 2075 2632 2365 
Q 2881 2656 2881 3163 
Q 2881 3666 2632 3958 
Q 2384 4250 1959 4250 
Q 1534 4250 1286 3958 
Q 1038 3666 1038 3163 
Q 1038 2656 1286 2365 
Q 1534 2075 1959 2075 
z
" transform="scale(0.015625)"/>
       </defs>
       <use xlink:href="#DejaVuSans-30"/>
       <use xlink:href="#DejaVuSans-2e" x="63.623047"/>
       <use xlink:href="#DejaVuSans-39" x="95.410156"/>
       <use xlink:href="#DejaVuSans-30" x="159.033203"/>
       <use xlink:href="#DejaVuSans-30" x="222.65625"/>
      </g>
     </g>
    </g>
    <g id="ytick_7">
     <g id="line2d_13">
      <g>
       <use xlink:href="#m6c918f0cfb" x="57.6" y="95.716773" style="stroke: #000000; stroke-width: 0.8"/>
      </g>
     </g>
     <g id="text_14">
      <!-- 0.925 -->
      <g transform="translate(21.971875 99.515992) scale(0.1 -0.1)">
       <use xlink:href="#DejaVuSans-30"/>
       <use xlink:href="#DejaVuSans-2e" x="63.623047"/>
       <use xlink:href="#DejaVuSans-39" x="95.410156"/>
       <use xlink:href="#DejaVuSans-32" x="159.033203"/>
       <use xlink:href="#DejaVuSans-35" x="222.65625"/>
      </g>
     </g>
    </g>
    <g id="ytick_8">
     <g id="line2d_14">
      <g>
       <use xlink:href="#m6c918f0cfb" x="57.6" y="61.5615" style="stroke: #000000; stroke-width: 0.8"/>
      </g>
     </g>
     <g id="text_15">
      <!-- 0.950 -->
      <g transform="translate(21.971875 65.360719) scale(0.1 -0.1)">
       <use xlink:href="#DejaVuSans-30"/>
       <use xlink:href="#DejaVuSans-2e" x="63.623047"/>
       <use xlink:href="#DejaVuSans-39" x="95.410156"/>
       <use xlink:href="#DejaVuSans-35" x="159.033203"/>
       <use xlink:href="#DejaVuSans-30" x="222.65625"/>
      </g>
     </g>
    </g>
    <g id="text_16">
     <!-- AUC -->
     <g transform="translate(15.892188 185.099094) rotate(-90) scale(0.1 -0.1)">
      <defs>
       <path id="DejaVuSans-41" d="M 2188 4044 
L 1331 1722 
L 3047 1722 
L 2188 4044 
z
M 1831 4666 
L 2547 4666 
L 4325 0 
L 3669 0 
L 3244 1197 
L 1141 1197 
L 716 0 
L 50 0 
L 1831 4666 
z
" transform="scale(0.015625)"/>
       <path id="DejaVuSans-55" d="M 556 4666 
L 1191 4666 
L 1191 1831 
Q 1191 1081 1462 751 
Q 1734 422 2344 422 
Q 2950 422 3222 751 
Q 3494 1081 3494 1831 
L 3494 4666 
L 4128 4666 
L 4128 1753 
Q 4128 841 3676 375 
Q 3225 -91 2344 -91 
Q 1459 -91 1007 375 
Q 556 841 556 1753 
L 556 4666 
z
" transform="scale(0.015625)"/>
       <path id="DejaVuSans-43" d="M 4122 4306 
L 4122 3641 
Q 3803 3938 3442 4084 
Q 3081 4231 2675 4231 
Q 1875 4231 1450 3742 
Q 1025 3253 1025 2328 
Q 1025 1406 1450 917 
Q 1875 428 2675 428 
Q 3081 428 3442 575 
Q 3803 722 4122 1019 
L 4122 359 
Q 3791 134 3420 21 
Q 3050 -91 2638 -91 
Q 1578 -91 968 557 
Q 359 1206 359 2328 
Q 359 3453 968 4101 
Q 1578 4750 2638 4750 
Q 3056 4750 3426 4639 
Q 3797 4528 4122 4306 
z
" transform="scale(0.015625)"/>
      </defs>
      <use xlink:href="#DejaVuSans-41"/>
      <use xlink:href="#DejaVuSans-55" x="68.408203"/>
      <use xlink:href="#DejaVuSans-43" x="141.601562"/>
     </g>
    </g>
   </g>
   <g id="line2d_15">
    <path d="M 73.832727 252.453655 
L 77.112066 85.711242 
L 80.391405 73.509801 
L 83.670744 66.437342 
L 86.950083 61.996234 
L 90.229421 59.359928 
L 93.50876 56.804966 
L 96.788099 55.29428 
L 100.067438 55.820688 
L 103.346777 55.076246 
L 106.626116 54.821619 
L 109.905455 55.886022 
L 113.184793 56.171524 
L 116.464132 56.798105 
L 119.743471 58.100896 
L 123.02281 58.999486 
L 126.302149 58.186966 
L 129.581488 59.479999 
L 132.860826 60.798724 
L 136.140165 62.969763 
L 139.419504 64.368383 
L 142.698843 66.86632 
L 145.978182 67.83215 
L 149.257521 67.644763 
L 152.53686 70.511681 
L 155.816198 72.736466 
L 159.095537 72.553424 
L 162.374876 73.660138 
L 165.654215 74.552628 
L 168.933554 75.913054 
L 172.212893 76.100289 
L 175.492231 79.072336 
L 178.77157 78.530987 
L 182.050909 80.381607 
L 185.330248 82.188011 
L 188.609587 84.687855 
L 191.888926 86.155773 
L 195.168264 84.876309 
L 198.447603 87.060156 
L 201.726942 84.504432 
L 205.006281 86.037912 
L 208.28562 84.181803 
L 211.564959 85.598414 
L 214.844298 86.382269 
L 218.123636 89.697681 
L 221.402975 86.34011 
L 224.682314 86.486407 
L 227.961653 91.051093 
L 231.240992 90.832983 
L 234.520331 92.153232 
L 237.799669 91.815813 
L 241.079008 91.351614 
L 244.358347 89.179203 
L 247.637686 95.566531 
L 250.917025 95.506229 
L 254.196364 95.361762 
L 257.475702 96.148514 
L 260.755041 93.768437 
L 264.03438 96.210418 
L 267.313719 96.311049 
L 270.593058 97.244402 
L 273.872397 96.779746 
L 277.151736 100.318148 
L 280.431074 95.794324 
L 283.710413 97.625885 
L 286.989752 98.02475 
L 290.269091 99.350031 
L 293.54843 101.728812 
L 296.827769 102.00349 
L 300.107107 100.623853 
L 303.386446 100.629723 
L 306.665785 106.49438 
L 309.945124 103.360256 
L 313.224463 105.507814 
L 316.503802 104.919046 
L 319.78314 105.94312 
L 323.062479 101.769217 
L 326.341818 105.389344 
L 329.621157 99.445249 
L 332.900496 103.360866 
L 336.179835 105.274533 
L 339.459174 103.382364 
L 342.738512 106.933497 
L 346.017851 102.791995 
L 349.29719 104.983923 
L 352.576529 104.757503 
L 355.855868 101.870611 
L 359.135207 106.749236 
L 362.414545 105.786456 
L 365.693884 102.306679 
L 368.973223 103.09061 
L 372.252562 105.852476 
L 375.531901 107.294245 
L 378.81124 108.171946 
L 382.090579 104.844716 
L 385.369917 107.371852 
L 388.649256 108.428631 
L 391.928595 105.235958 
L 395.207934 102.638151 
L 398.487273 105.509949 
" clip-path="url(#p493cdff13e)" style="fill: none; stroke: #1f77b4; stroke-width: 1.5; stroke-linecap: square"/>
   </g>
   <g id="line2d_16">
    <path d="M 73.832727 295.488 
L 77.112066 92.873964 
L 80.391405 75.465703 
L 83.670744 71.560074 
L 86.950083 67.144428 
L 90.229421 63.318922 
L 93.50876 61.677492 
L 96.788099 59.274011 
L 100.067438 60.045516 
L 103.346777 61.41791 
L 106.626116 58.361698 
L 109.905455 60.59487 
L 113.184793 58.614038 
L 116.464132 59.218968 
L 119.743471 62.038163 
L 123.02281 63.561657 
L 126.302149 64.297102 
L 129.581488 65.865346 
L 132.860826 65.340387 
L 136.140165 67.665041 
L 139.419504 69.339634 
L 142.698843 68.732569 
L 145.978182 70.007382 
L 149.257521 71.950019 
L 152.53686 73.83487 
L 155.816198 78.023486 
L 159.095537 77.660223 
L 162.374876 76.786333 
L 165.654215 78.310589 
L 168.933554 78.2804 
L 172.212893 80.288142 
L 175.492231 83.527853 
L 178.77157 82.260664 
L 182.050909 81.013143 
L 185.330248 85.74227 
L 188.609587 84.626409 
L 191.888926 85.48932 
L 195.168264 85.803183 
L 198.447603 85.657877 
L 201.726942 85.266407 
L 205.006281 88.086212 
L 208.28562 85.827121 
L 211.564959 92.27094 
L 214.844298 91.295047 
L 218.123636 92.186776 
L 221.402975 89.380084 
L 224.682314 90.405072 
L 227.961653 90.388377 
L 231.240992 91.7302 
L 234.520331 93.945075 
L 237.799669 93.303095 
L 241.079008 100.116657 
L 244.358347 95.381736 
L 247.637686 98.089093 
L 250.917025 96.713573 
L 254.196364 97.98587 
L 257.475702 97.746871 
L 260.755041 98.480563 
L 264.03438 99.895345 
L 267.313719 100.218584 
L 270.593058 103.641641 
L 273.872397 100.334234 
L 277.151736 102.212223 
L 280.431074 102.637999 
L 283.710413 100.732107 
L 286.989752 100.108805 
L 290.269091 106.320715 
L 293.54843 104.544729 
L 296.827769 106.001059 
L 300.107107 104.358714 
L 303.386446 107.338004 
L 306.665785 106.992656 
L 309.945124 108.79563 
L 313.224463 107.122104 
L 316.503802 106.989607 
L 319.78314 109.282471 
L 323.062479 111.428123 
L 326.341818 110.099564 
L 329.621157 109.181077 
L 332.900496 111.8555 
L 336.179835 111.333286 
L 339.459174 109.751854 
L 342.738512 108.320072 
L 346.017851 108.781755 
L 349.29719 108.324188 
L 352.576529 109.131524 
L 355.855868 111.048775 
L 359.135207 109.739198 
L 362.414545 107.605057 
L 365.693884 113.106604 
L 368.973223 111.722774 
L 372.252562 110.010216 
L 375.531901 112.013461 
L 378.81124 112.520199 
L 382.090579 110.779129 
L 385.369917 108.94772 
L 388.649256 109.810555 
L 391.928595 112.601085 
L 395.207934 110.63268 
L 398.487273 112.276245 
" clip-path="url(#p493cdff13e)" style="fill: none; stroke: #ff7f0e; stroke-width: 1.5; stroke-linecap: square"/>
   </g>
   <g id="line2d_17">
    <path d="M 73.832727 252.955743 
L 77.112066 148.208171 
L 80.391405 73.943582 
L 83.670744 66.962606 
L 86.950083 61.395649 
L 90.229421 59.294518 
L 93.50876 57.614741 
L 96.788099 57.100684 
L 100.067438 54.546256 
L 103.346777 54.014055 
L 106.626116 54.265404 
L 109.905455 53.568 
L 113.184793 54.466285 
L 116.464132 55.925588 
L 119.743471 56.348696 
L 123.02281 57.831556 
L 126.302149 58.898474 
L 129.581488 59.380131 
L 132.860826 60.20035 
L 136.140165 60.111231 
L 139.419504 62.391897 
L 142.698843 62.035876 
L 145.978182 63.142742 
L 149.257521 62.557938 
L 152.53686 65.031785 
L 155.816198 66.158015 
L 159.095537 67.859595 
L 162.374876 70.079044 
L 165.654215 71.369103 
L 168.933554 73.773729 
L 172.212893 73.993745 
L 175.492231 77.335611 
L 178.77157 78.528776 
L 182.050909 78.009992 
L 185.330248 81.950766 
L 188.609587 79.167326 
L 191.888926 81.03792 
L 195.168264 81.64102 
L 198.447603 82.256013 
L 201.726942 81.715503 
L 205.006281 83.354569 
L 208.28562 83.858716 
L 211.564959 83.414643 
L 214.844298 84.301264 
L 218.123636 88.732004 
L 221.402975 87.417168 
L 224.682314 85.226612 
L 227.961653 87.374628 
L 231.240992 88.878148 
L 234.520331 95.068103 
L 237.799669 89.113945 
L 241.079008 90.862486 
L 244.358347 96.942814 
L 247.637686 89.418506 
L 250.917025 90.486568 
L 254.196364 88.854744 
L 257.475702 92.562389 
L 260.755041 92.529379 
L 264.03438 96.385989 
L 267.313719 93.946752 
L 270.593058 93.318799 
L 273.872397 96.182363 
L 277.151736 94.571808 
L 280.431074 98.51243 
L 283.710413 97.182041 
L 286.989752 98.382829 
L 290.269091 95.727694 
L 293.54843 96.106737 
L 296.827769 99.575841 
L 300.107107 98.690974 
L 303.386446 96.508347 
L 306.665785 101.60958 
L 309.945124 98.24065 
L 313.224463 96.676446 
L 316.503802 99.04181 
L 319.78314 100.1656 
L 323.062479 98.635703 
L 326.341818 99.772148 
L 329.621157 104.698954 
L 332.900496 104.619211 
L 336.179835 101.654788 
L 339.459174 106.040702 
L 342.738512 103.008809 
L 346.017851 102.208335 
L 349.29719 99.783507 
L 352.576529 103.83345 
L 355.855868 102.230138 
L 359.135207 105.001686 
L 362.414545 101.39025 
L 365.693884 103.983177 
L 368.973223 104.799432 
L 372.252562 102.174181 
L 375.531901 103.282572 
L 378.81124 104.1018 
L 382.090579 103.116378 
L 385.369917 102.489111 
L 388.649256 102.517013 
L 391.928595 105.273542 
L 395.207934 104.679361 
L 398.487273 106.937233 
" clip-path="url(#p493cdff13e)" style="fill: none; stroke: #2ca02c; stroke-width: 1.5; stroke-linecap: square"/>
   </g>
   <g id="line2d_18">
    <path d="M 73.832727 231.364888 
L 77.112066 88.682832 
L 80.391405 75.770874 
L 83.670744 67.979742 
L 86.950083 63.105691 
L 90.229421 60.582901 
L 93.50876 58.369398 
L 96.788099 57.136744 
L 100.067438 55.881676 
L 103.346777 54.284691 
L 106.626116 54.75316 
L 109.905455 55.784628 
L 113.184793 56.139429 
L 116.464132 56.476238 
L 119.743471 59.06299 
L 123.02281 62.157396 
L 126.302149 61.470208 
L 129.581488 61.776522 
L 132.860826 64.156371 
L 136.140165 65.988772 
L 139.419504 66.549409 
L 142.698843 67.87568 
L 145.978182 69.213235 
L 149.257521 69.971018 
L 152.53686 71.771551 
L 155.816198 72.151739 
L 159.095537 73.645577 
L 162.374876 78.185029 
L 165.654215 78.914071 
L 168.933554 76.283788 
L 172.212893 81.455463 
L 175.492231 79.133858 
L 178.77157 79.01859 
L 182.050909 82.035235 
L 185.330248 85.253066 
L 188.609587 83.412203 
L 191.888926 85.600319 
L 195.168264 83.969639 
L 198.447603 87.253414 
L 201.726942 86.806901 
L 205.006281 92.025461 
L 208.28562 91.395068 
L 211.564959 93.224801 
L 214.844298 91.484493 
L 218.123636 96.187395 
L 221.402975 94.359035 
L 224.682314 99.766278 
L 227.961653 95.14998 
L 231.240992 95.660835 
L 234.520331 97.293193 
L 237.799669 96.133039 
L 241.079008 94.21129 
L 244.358347 100.147761 
L 247.637686 103.327627 
L 250.917025 99.766125 
L 254.196364 97.841404 
L 257.475702 100.157672 
L 260.755041 99.770471 
L 264.03438 102.449468 
L 267.313719 101.568794 
L 270.593058 99.717716 
L 273.872397 101.622769 
L 277.151736 101.29526 
L 280.431074 104.609606 
L 283.710413 103.903206 
L 286.989752 103.494278 
L 290.269091 103.102884 
L 293.54843 105.482352 
L 296.827769 109.228648 
L 300.107107 108.872933 
L 303.386446 107.485139 
L 306.665785 109.287197 
L 309.945124 109.555775 
L 313.224463 108.052332 
L 316.503802 109.674627 
L 319.78314 108.047605 
L 323.062479 112.067131 
L 326.341818 112.736099 
L 329.621157 107.327255 
L 332.900496 106.970091 
L 336.179835 110.560104 
L 339.459174 110.087291 
L 342.738512 108.231867 
L 346.017851 107.231045 
L 349.29719 112.510136 
L 352.576529 112.347678 
L 355.855868 111.920834 
L 359.135207 108.774817 
L 362.414545 109.440583 
L 365.693884 114.110856 
L 368.973223 110.434773 
L 372.252562 112.744103 
L 375.531901 113.237882 
L 378.81124 111.822719 
L 382.090579 110.683606 
L 385.369917 114.218958 
L 388.649256 114.195707 
L 391.928595 114.11322 
L 395.207934 110.057101 
L 398.487273 109.221177 
" clip-path="url(#p493cdff13e)" style="fill: none; stroke: #d62728; stroke-width: 1.5; stroke-linecap: square"/>
   </g>
   <g id="patch_3">
    <path d="M 57.6 307.584 
L 57.6 41.472 
" style="fill: none; stroke: #000000; stroke-width: 0.8; stroke-linejoin: miter; stroke-linecap: square"/>
   </g>
   <g id="patch_4">
    <path d="M 414.72 307.584 
L 414.72 41.472 
" style="fill: none; stroke: #000000; stroke-width: 0.8; stroke-linejoin: miter; stroke-linecap: square"/>
   </g>
   <g id="patch_5">
    <path d="M 57.6 307.584 
L 414.72 307.584 
" style="fill: none; stroke: #000000; stroke-width: 0.8; stroke-linejoin: miter; stroke-linecap: square"/>
   </g>
   <g id="patch_6">
    <path d="M 57.6 41.472 
L 414.72 41.472 
" style="fill: none; stroke: #000000; stroke-width: 0.8; stroke-linejoin: miter; stroke-linecap: square"/>
   </g>
   <g id="legend_1">
    <g id="patch_7">
     <path d="M 342.712188 302.584 
L 407.72 302.584 
Q 409.72 302.584 409.72 300.584 
L 409.72 242.31525 
Q 409.72 240.31525 407.72 240.31525 
L 342.712188 240.31525 
Q 340.712188 240.31525 340.712188 242.31525 
L 340.712188 300.584 
Q 340.712188 302.584 342.712188 302.584 
z
" style="fill: #ffffff; opacity: 0.8; stroke: #cccccc; stroke-linejoin: miter"/>
    </g>
    <g id="line2d_19">
     <path d="M 344.712188 248.413687 
L 354.712188 248.413687 
L 364.712188 248.413687 
" style="fill: none; stroke: #1f77b4; stroke-width: 1.5; stroke-linecap: square"/>
    </g>
    <g id="text_17">
     <!-- All -->
     <g transform="translate(372.712188 251.913687) scale(0.1 -0.1)">
      <defs>
       <path id="DejaVuSans-6c" d="M 603 4863 
L 1178 4863 
L 1178 0 
L 603 0 
L 603 4863 
z
" transform="scale(0.015625)"/>
      </defs>
      <use xlink:href="#DejaVuSans-41"/>
      <use xlink:href="#DejaVuSans-6c" x="68.408203"/>
      <use xlink:href="#DejaVuSans-6c" x="96.191406"/>
     </g>
    </g>
    <g id="line2d_20">
     <path d="M 344.712188 263.091812 
L 354.712188 263.091812 
L 364.712188 263.091812 
" style="fill: none; stroke: #ff7f0e; stroke-width: 1.5; stroke-linecap: square"/>
    </g>
    <g id="text_18">
     <!-- HM -->
     <g transform="translate(372.712188 266.591812) scale(0.1 -0.1)">
      <defs>
       <path id="DejaVuSans-48" d="M 628 4666 
L 1259 4666 
L 1259 2753 
L 3553 2753 
L 3553 4666 
L 4184 4666 
L 4184 0 
L 3553 0 
L 3553 2222 
L 1259 2222 
L 1259 0 
L 628 0 
L 628 4666 
z
" transform="scale(0.015625)"/>
       <path id="DejaVuSans-4d" d="M 628 4666 
L 1569 4666 
L 2759 1491 
L 3956 4666 
L 4897 4666 
L 4897 0 
L 4281 0 
L 4281 4097 
L 3078 897 
L 2444 897 
L 1241 4097 
L 1241 0 
L 628 0 
L 628 4666 
z
" transform="scale(0.015625)"/>
      </defs>
      <use xlink:href="#DejaVuSans-48"/>
      <use xlink:href="#DejaVuSans-4d" x="75.195312"/>
     </g>
    </g>
    <g id="line2d_21">
     <path d="M 344.712188 277.769937 
L 354.712188 277.769937 
L 364.712188 277.769937 
" style="fill: none; stroke: #2ca02c; stroke-width: 1.5; stroke-linecap: square"/>
    </g>
    <g id="text_19">
     <!-- HM_D -->
     <g transform="translate(372.712188 281.269937) scale(0.1 -0.1)">
      <defs>
       <path id="DejaVuSans-5f" d="M 3263 -1063 
L 3263 -1509 
L -63 -1509 
L -63 -1063 
L 3263 -1063 
z
" transform="scale(0.015625)"/>
       <path id="DejaVuSans-44" d="M 1259 4147 
L 1259 519 
L 2022 519 
Q 2988 519 3436 956 
Q 3884 1394 3884 2338 
Q 3884 3275 3436 3711 
Q 2988 4147 2022 4147 
L 1259 4147 
z
M 628 4666 
L 1925 4666 
Q 3281 4666 3915 4102 
Q 4550 3538 4550 2338 
Q 4550 1131 3912 565 
Q 3275 0 1925 0 
L 628 0 
L 628 4666 
z
" transform="scale(0.015625)"/>
      </defs>
      <use xlink:href="#DejaVuSans-48"/>
      <use xlink:href="#DejaVuSans-4d" x="75.195312"/>
      <use xlink:href="#DejaVuSans-5f" x="161.474609"/>
      <use xlink:href="#DejaVuSans-44" x="211.474609"/>
     </g>
    </g>
    <g id="line2d_22">
     <path d="M 344.712188 292.726187 
L 354.712188 292.726187 
L 364.712188 292.726187 
" style="fill: none; stroke: #d62728; stroke-width: 1.5; stroke-linecap: square"/>
    </g>
    <g id="text_20">
     <!-- HM_TF -->
     <g transform="translate(372.712188 296.226187) scale(0.1 -0.1)">
      <defs>
       <path id="DejaVuSans-54" d="M -19 4666 
L 3928 4666 
L 3928 4134 
L 2272 4134 
L 2272 0 
L 1638 0 
L 1638 4134 
L -19 4134 
L -19 4666 
z
" transform="scale(0.015625)"/>
       <path id="DejaVuSans-46" d="M 628 4666 
L 3309 4666 
L 3309 4134 
L 1259 4134 
L 1259 2759 
L 3109 2759 
L 3109 2228 
L 1259 2228 
L 1259 0 
L 628 0 
L 628 4666 
z
" transform="scale(0.015625)"/>
      </defs>
      <use xlink:href="#DejaVuSans-48"/>
      <use xlink:href="#DejaVuSans-4d" x="75.195312"/>
      <use xlink:href="#DejaVuSans-5f" x="161.474609"/>
      <use xlink:href="#DejaVuSans-54" x="211.474609"/>
      <use xlink:href="#DejaVuSans-46" x="272.558594"/>
     </g>
    </g>
   </g>
  </g>
 </g>
 <defs>
  <clipPath id="p493cdff13e">
   <rect x="57.6" y="41.472" width="357.12" height="266.112"/>
  </clipPath>
 </defs>
</svg>
