<?xml version="1.0" encoding="utf-8" standalone="no"?>
<!DOCTYPE svg PUBLIC "-//W3C//DTD SVG 1.1//EN"
  "http://www.w3.org/Graphics/SVG/1.1/DTD/svg11.dtd">
<svg xmlns:xlink="http://www.w3.org/1999/xlink" width="460.8pt" height="345.6pt" viewBox="0 0 460.8 345.6" xmlns="http://www.w3.org/2000/svg" version="1.1">
 <metadata>
  <rdf:RDF xmlns:dc="http://purl.org/dc/elements/1.1/" xmlns:cc="http://creativecommons.org/ns#" xmlns:rdf="http://www.w3.org/1999/02/22-rdf-syntax-ns#">
   <cc:Work>
    <dc:type rdf:resource="http://purl.org/dc/dcmitype/StillImage"/>
    <dc:date>2025-05-10T17:25:37.226495</dc:date>
    <dc:format>image/svg+xml</dc:format>
    <dc:creator>
     <cc:Agent>
      <dc:title>Matplotlib v3.8.4, https://matplotlib.org/</dc:title>
     </cc:Agent>
    </dc:creator>
   </cc:Work>
  </rdf:RDF>
 </metadata>
 <defs>
  <style type="text/css">*{stroke-linejoin: round; stroke-linecap: butt}</style>
 </defs>
 <g id="figure_1">
  <g id="patch_1">
   <path d="M 0 345.6 
L 460.8 345.6 
L 460.8 0 
L 0 0 
z
" style="fill: #ffffff"/>
  </g>
  <g id="axes_1">
   <g id="patch_2">
    <path d="M 57.6 307.584 
L 414.72 307.584 
L 414.72 41.472 
L 57.6 41.472 
z
" style="fill: #ffffff"/>
   </g>
   <g id="matplotlib.axis_1">
    <g id="xtick_1">
     <g id="line2d_1">
      <defs>
       <path id="m4337c38ef4" d="M 0 0 
L 0 3.5 
" style="stroke: #000000; stroke-width: 0.8"/>
      </defs>
      <g>
       <use xlink:href="#m4337c38ef4" x="70.553388" y="307.584" style="stroke: #000000; stroke-width: 0.8"/>
      </g>
     </g>
     <g id="text_1">
      <!-- 0 -->
      <g transform="translate(67.372138 322.182437) scale(0.1 -0.1)">
       <defs>
        <path id="DejaVuSans-30" d="M 2034 4250 
Q 1547 4250 1301 3770 
Q 1056 3291 1056 2328 
Q 1056 1369 1301 889 
Q 1547 409 2034 409 
Q 2525 409 2770 889 
Q 3016 1369 3016 2328 
Q 3016 3291 2770 3770 
Q 2525 4250 2034 4250 
z
M 2034 4750 
Q 2819 4750 3233 4129 
Q 3647 3509 3647 2328 
Q 3647 1150 3233 529 
Q 2819 -91 2034 -91 
Q 1250 -91 836 529 
Q 422 1150 422 2328 
Q 422 3509 836 4129 
Q 1250 4750 2034 4750 
z
" transform="scale(0.015625)"/>
       </defs>
       <use xlink:href="#DejaVuSans-30"/>
      </g>
     </g>
    </g>
    <g id="xtick_2">
     <g id="line2d_2">
      <g>
       <use xlink:href="#m4337c38ef4" x="136.140165" y="307.584" style="stroke: #000000; stroke-width: 0.8"/>
      </g>
     </g>
     <g id="text_2">
      <!-- 20 -->
      <g transform="translate(129.777665 322.182437) scale(0.1 -0.1)">
       <defs>
        <path id="DejaVuSans-32" d="M 1228 531 
L 3431 531 
L 3431 0 
L 469 0 
L 469 531 
Q 828 903 1448 1529 
Q 2069 2156 2228 2338 
Q 2531 2678 2651 2914 
Q 2772 3150 2772 3378 
Q 2772 3750 2511 3984 
Q 2250 4219 1831 4219 
Q 1534 4219 1204 4116 
Q 875 4013 500 3803 
L 500 4441 
Q 881 4594 1212 4672 
Q 1544 4750 1819 4750 
Q 2544 4750 2975 4387 
Q 3406 4025 3406 3419 
Q 3406 3131 3298 2873 
Q 3191 2616 2906 2266 
Q 2828 2175 2409 1742 
Q 1991 1309 1228 531 
z
" transform="scale(0.015625)"/>
       </defs>
       <use xlink:href="#DejaVuSans-32"/>
       <use xlink:href="#DejaVuSans-30" x="63.623047"/>
      </g>
     </g>
    </g>
    <g id="xtick_3">
     <g id="line2d_3">
      <g>
       <use xlink:href="#m4337c38ef4" x="201.726942" y="307.584" style="stroke: #000000; stroke-width: 0.8"/>
      </g>
     </g>
     <g id="text_3">
      <!-- 40 -->
      <g transform="translate(195.364442 322.182437) scale(0.1 -0.1)">
       <defs>
        <path id="DejaVuSans-34" d="M 2419 4116 
L 825 1625 
L 2419 1625 
L 2419 4116 
z
M 2253 4666 
L 3047 4666 
L 3047 1625 
L 3713 1625 
L 3713 1100 
L 3047 1100 
L 3047 0 
L 2419 0 
L 2419 1100 
L 313 1100 
L 313 1709 
L 2253 4666 
z
" transform="scale(0.015625)"/>
       </defs>
       <use xlink:href="#DejaVuSans-34"/>
       <use xlink:href="#DejaVuSans-30" x="63.623047"/>
      </g>
     </g>
    </g>
    <g id="xtick_4">
     <g id="line2d_4">
      <g>
       <use xlink:href="#m4337c38ef4" x="267.313719" y="307.584" style="stroke: #000000; stroke-width: 0.8"/>
      </g>
     </g>
     <g id="text_4">
      <!-- 60 -->
      <g transform="translate(260.951219 322.182437) scale(0.1 -0.1)">
       <defs>
        <path id="DejaVuSans-36" d="M 2113 2584 
Q 1688 2584 1439 2293 
Q 1191 2003 1191 1497 
Q 1191 994 1439 701 
Q 1688 409 2113 409 
Q 2538 409 2786 701 
Q 3034 994 3034 1497 
Q 3034 2003 2786 2293 
Q 2538 2584 2113 2584 
z
M 3366 4563 
L 3366 3988 
Q 3128 4100 2886 4159 
Q 2644 4219 2406 4219 
Q 1781 4219 1451 3797 
Q 1122 3375 1075 2522 
Q 1259 2794 1537 2939 
Q 1816 3084 2150 3084 
Q 2853 3084 3261 2657 
Q 3669 2231 3669 1497 
Q 3669 778 3244 343 
Q 2819 -91 2113 -91 
Q 1303 -91 875 529 
Q 447 1150 447 2328 
Q 447 3434 972 4092 
Q 1497 4750 2381 4750 
Q 2619 4750 2861 4703 
Q 3103 4656 3366 4563 
z
" transform="scale(0.015625)"/>
       </defs>
       <use xlink:href="#DejaVuSans-36"/>
       <use xlink:href="#DejaVuSans-30" x="63.623047"/>
      </g>
     </g>
    </g>
    <g id="xtick_5">
     <g id="line2d_5">
      <g>
       <use xlink:href="#m4337c38ef4" x="332.900496" y="307.584" style="stroke: #000000; stroke-width: 0.8"/>
      </g>
     </g>
     <g id="text_5">
      <!-- 80 -->
      <g transform="translate(326.537996 322.182437) scale(0.1 -0.1)">
       <defs>
        <path id="DejaVuSans-38" d="M 2034 2216 
Q 1584 2216 1326 1975 
Q 1069 1734 1069 1313 
Q 1069 891 1326 650 
Q 1584 409 2034 409 
Q 2484 409 2743 651 
Q 3003 894 3003 1313 
Q 3003 1734 2745 1975 
Q 2488 2216 2034 2216 
z
M 1403 2484 
Q 997 2584 770 2862 
Q 544 3141 544 3541 
Q 544 4100 942 4425 
Q 1341 4750 2034 4750 
Q 2731 4750 3128 4425 
Q 3525 4100 3525 3541 
Q 3525 3141 3298 2862 
Q 3072 2584 2669 2484 
Q 3125 2378 3379 2068 
Q 3634 1759 3634 1313 
Q 3634 634 3220 271 
Q 2806 -91 2034 -91 
Q 1263 -91 848 271 
Q 434 634 434 1313 
Q 434 1759 690 2068 
Q 947 2378 1403 2484 
z
M 1172 3481 
Q 1172 3119 1398 2916 
Q 1625 2713 2034 2713 
Q 2441 2713 2670 2916 
Q 2900 3119 2900 3481 
Q 2900 3844 2670 4047 
Q 2441 4250 2034 4250 
Q 1625 4250 1398 4047 
Q 1172 3844 1172 3481 
z
" transform="scale(0.015625)"/>
       </defs>
       <use xlink:href="#DejaVuSans-38"/>
       <use xlink:href="#DejaVuSans-30" x="63.623047"/>
      </g>
     </g>
    </g>
    <g id="xtick_6">
     <g id="line2d_6">
      <g>
       <use xlink:href="#m4337c38ef4" x="398.487273" y="307.584" style="stroke: #000000; stroke-width: 0.8"/>
      </g>
     </g>
     <g id="text_6">
      <!-- 100 -->
      <g transform="translate(388.943523 322.182437) scale(0.1 -0.1)">
       <defs>
        <path id="DejaVuSans-31" d="M 794 531 
L 1825 531 
L 1825 4091 
L 703 3866 
L 703 4441 
L 1819 4666 
L 2450 4666 
L 2450 531 
L 3481 531 
L 3481 0 
L 794 0 
L 794 531 
z
" transform="scale(0.015625)"/>
       </defs>
       <use xlink:href="#DejaVuSans-31"/>
       <use xlink:href="#DejaVuSans-30" x="63.623047"/>
       <use xlink:href="#DejaVuSans-30" x="127.246094"/>
      </g>
     </g>
    </g>
    <g id="text_7">
     <!-- Epoch -->
     <g transform="translate(220.849063 335.860562) scale(0.1 -0.1)">
      <defs>
       <path id="DejaVuSans-45" d="M 628 4666 
L 3578 4666 
L 3578 4134 
L 1259 4134 
L 1259 2753 
L 3481 2753 
L 3481 2222 
L 1259 2222 
L 1259 531 
L 3634 531 
L 3634 0 
L 628 0 
L 628 4666 
z
" transform="scale(0.015625)"/>
       <path id="DejaVuSans-70" d="M 1159 525 
L 1159 -1331 
L 581 -1331 
L 581 3500 
L 1159 3500 
L 1159 2969 
Q 1341 3281 1617 3432 
Q 1894 3584 2278 3584 
Q 2916 3584 3314 3078 
Q 3713 2572 3713 1747 
Q 3713 922 3314 415 
Q 2916 -91 2278 -91 
Q 1894 -91 1617 61 
Q 1341 213 1159 525 
z
M 3116 1747 
Q 3116 2381 2855 2742 
Q 2594 3103 2138 3103 
Q 1681 3103 1420 2742 
Q 1159 2381 1159 1747 
Q 1159 1113 1420 752 
Q 1681 391 2138 391 
Q 2594 391 2855 752 
Q 3116 1113 3116 1747 
z
" transform="scale(0.015625)"/>
       <path id="DejaVuSans-6f" d="M 1959 3097 
Q 1497 3097 1228 2736 
Q 959 2375 959 1747 
Q 959 1119 1226 758 
Q 1494 397 1959 397 
Q 2419 397 2687 759 
Q 2956 1122 2956 1747 
Q 2956 2369 2687 2733 
Q 2419 3097 1959 3097 
z
M 1959 3584 
Q 2709 3584 3137 3096 
Q 3566 2609 3566 1747 
Q 3566 888 3137 398 
Q 2709 -91 1959 -91 
Q 1206 -91 779 398 
Q 353 888 353 1747 
Q 353 2609 779 3096 
Q 1206 3584 1959 3584 
z
" transform="scale(0.015625)"/>
       <path id="DejaVuSans-63" d="M 3122 3366 
L 3122 2828 
Q 2878 2963 2633 3030 
Q 2388 3097 2138 3097 
Q 1578 3097 1268 2742 
Q 959 2388 959 1747 
Q 959 1106 1268 751 
Q 1578 397 2138 397 
Q 2388 397 2633 464 
Q 2878 531 3122 666 
L 3122 134 
Q 2881 22 2623 -34 
Q 2366 -91 2075 -91 
Q 1284 -91 818 406 
Q 353 903 353 1747 
Q 353 2603 823 3093 
Q 1294 3584 2113 3584 
Q 2378 3584 2631 3529 
Q 2884 3475 3122 3366 
z
" transform="scale(0.015625)"/>
       <path id="DejaVuSans-68" d="M 3513 2113 
L 3513 0 
L 2938 0 
L 2938 2094 
Q 2938 2591 2744 2837 
Q 2550 3084 2163 3084 
Q 1697 3084 1428 2787 
Q 1159 2491 1159 1978 
L 1159 0 
L 581 0 
L 581 4863 
L 1159 4863 
L 1159 2956 
Q 1366 3272 1645 3428 
Q 1925 3584 2291 3584 
Q 2894 3584 3203 3211 
Q 3513 2838 3513 2113 
z
" transform="scale(0.015625)"/>
      </defs>
      <use xlink:href="#DejaVuSans-45"/>
      <use xlink:href="#DejaVuSans-70" x="63.183594"/>
      <use xlink:href="#DejaVuSans-6f" x="126.660156"/>
      <use xlink:href="#DejaVuSans-63" x="187.841797"/>
      <use xlink:href="#DejaVuSans-68" x="242.822266"/>
     </g>
    </g>
   </g>
   <g id="matplotlib.axis_2">
    <g id="ytick_1">
     <g id="line2d_7">
      <defs>
       <path id="m917d4ac55a" d="M 0 0 
L -3.5 0 
" style="stroke: #000000; stroke-width: 0.8"/>
      </defs>
      <g>
       <use xlink:href="#m917d4ac55a" x="57.6" y="291.383742" style="stroke: #000000; stroke-width: 0.8"/>
      </g>
     </g>
     <g id="text_8">
      <!-- 0.5 -->
      <g transform="translate(34.696875 295.182961) scale(0.1 -0.1)">
       <defs>
        <path id="DejaVuSans-2e" d="M 684 794 
L 1344 794 
L 1344 0 
L 684 0 
L 684 794 
z
" transform="scale(0.015625)"/>
        <path id="DejaVuSans-35" d="M 691 4666 
L 3169 4666 
L 3169 4134 
L 1269 4134 
L 1269 2991 
Q 1406 3038 1543 3061 
Q 1681 3084 1819 3084 
Q 2600 3084 3056 2656 
Q 3513 2228 3513 1497 
Q 3513 744 3044 326 
Q 2575 -91 1722 -91 
Q 1428 -91 1123 -41 
Q 819 9 494 109 
L 494 744 
Q 775 591 1075 516 
Q 1375 441 1709 441 
Q 2250 441 2565 725 
Q 2881 1009 2881 1497 
Q 2881 1984 2565 2268 
Q 2250 2553 1709 2553 
Q 1456 2553 1204 2497 
Q 953 2441 691 2322 
L 691 4666 
z
" transform="scale(0.015625)"/>
       </defs>
       <use xlink:href="#DejaVuSans-30"/>
       <use xlink:href="#DejaVuSans-2e" x="63.623047"/>
       <use xlink:href="#DejaVuSans-35" x="95.410156"/>
      </g>
     </g>
    </g>
    <g id="ytick_2">
     <g id="line2d_8">
      <g>
       <use xlink:href="#m917d4ac55a" x="57.6" y="235.574196" style="stroke: #000000; stroke-width: 0.8"/>
      </g>
     </g>
     <g id="text_9">
      <!-- 0.6 -->
      <g transform="translate(34.696875 239.373415) scale(0.1 -0.1)">
       <use xlink:href="#DejaVuSans-30"/>
       <use xlink:href="#DejaVuSans-2e" x="63.623047"/>
       <use xlink:href="#DejaVuSans-36" x="95.410156"/>
      </g>
     </g>
    </g>
    <g id="ytick_3">
     <g id="line2d_9">
      <g>
       <use xlink:href="#m917d4ac55a" x="57.6" y="179.76465" style="stroke: #000000; stroke-width: 0.8"/>
      </g>
     </g>
     <g id="text_10">
      <!-- 0.7 -->
      <g transform="translate(34.696875 183.563869) scale(0.1 -0.1)">
       <defs>
        <path id="DejaVuSans-37" d="M 525 4666 
L 3525 4666 
L 3525 4397 
L 1831 0 
L 1172 0 
L 2766 4134 
L 525 4134 
L 525 4666 
z
" transform="scale(0.015625)"/>
       </defs>
       <use xlink:href="#DejaVuSans-30"/>
       <use xlink:href="#DejaVuSans-2e" x="63.623047"/>
       <use xlink:href="#DejaVuSans-37" x="95.410156"/>
      </g>
     </g>
    </g>
    <g id="ytick_4">
     <g id="line2d_10">
      <g>
       <use xlink:href="#m917d4ac55a" x="57.6" y="123.955104" style="stroke: #000000; stroke-width: 0.8"/>
      </g>
     </g>
     <g id="text_11">
      <!-- 0.8 -->
      <g transform="translate(34.696875 127.754323) scale(0.1 -0.1)">
       <use xlink:href="#DejaVuSans-30"/>
       <use xlink:href="#DejaVuSans-2e" x="63.623047"/>
       <use xlink:href="#DejaVuSans-38" x="95.410156"/>
      </g>
     </g>
    </g>
    <g id="ytick_5">
     <g id="line2d_11">
      <g>
       <use xlink:href="#m917d4ac55a" x="57.6" y="68.145558" style="stroke: #000000; stroke-width: 0.8"/>
      </g>
     </g>
     <g id="text_12">
      <!-- 0.9 -->
      <g transform="translate(34.696875 71.944777) scale(0.1 -0.1)">
       <defs>
        <path id="DejaVuSans-39" d="M 703 97 
L 703 672 
Q 941 559 1184 500 
Q 1428 441 1663 441 
Q 2288 441 2617 861 
Q 2947 1281 2994 2138 
Q 2813 1869 2534 1725 
Q 2256 1581 1919 1581 
Q 1219 1581 811 2004 
Q 403 2428 403 3163 
Q 403 3881 828 4315 
Q 1253 4750 1959 4750 
Q 2769 4750 3195 4129 
Q 3622 3509 3622 2328 
Q 3622 1225 3098 567 
Q 2575 -91 1691 -91 
Q 1453 -91 1209 -44 
Q 966 3 703 97 
z
M 1959 2075 
Q 2384 2075 2632 2365 
Q 2881 2656 2881 3163 
Q 2881 3666 2632 3958 
Q 2384 4250 1959 4250 
Q 1534 4250 1286 3958 
Q 1038 3666 1038 3163 
Q 1038 2656 1286 2365 
Q 1534 2075 1959 2075 
z
" transform="scale(0.015625)"/>
       </defs>
       <use xlink:href="#DejaVuSans-30"/>
       <use xlink:href="#DejaVuSans-2e" x="63.623047"/>
       <use xlink:href="#DejaVuSans-39" x="95.410156"/>
      </g>
     </g>
    </g>
    <g id="text_13">
     <!-- AUC -->
     <g transform="translate(28.617188 185.099094) rotate(-90) scale(0.1 -0.1)">
      <defs>
       <path id="DejaVuSans-41" d="M 2188 4044 
L 1331 1722 
L 3047 1722 
L 2188 4044 
z
M 1831 4666 
L 2547 4666 
L 4325 0 
L 3669 0 
L 3244 1197 
L 1141 1197 
L 716 0 
L 50 0 
L 1831 4666 
z
" transform="scale(0.015625)"/>
       <path id="DejaVuSans-55" d="M 556 4666 
L 1191 4666 
L 1191 1831 
Q 1191 1081 1462 751 
Q 1734 422 2344 422 
Q 2950 422 3222 751 
Q 3494 1081 3494 1831 
L 3494 4666 
L 4128 4666 
L 4128 1753 
Q 4128 841 3676 375 
Q 3225 -91 2344 -91 
Q 1459 -91 1007 375 
Q 556 841 556 1753 
L 556 4666 
z
" transform="scale(0.015625)"/>
       <path id="DejaVuSans-43" d="M 4122 4306 
L 4122 3641 
Q 3803 3938 3442 4084 
Q 3081 4231 2675 4231 
Q 1875 4231 1450 3742 
Q 1025 3253 1025 2328 
Q 1025 1406 1450 917 
Q 1875 428 2675 428 
Q 3081 428 3442 575 
Q 3803 722 4122 1019 
L 4122 359 
Q 3791 134 3420 21 
Q 3050 -91 2638 -91 
Q 1578 -91 968 557 
Q 359 1206 359 2328 
Q 359 3453 968 4101 
Q 1578 4750 2638 4750 
Q 3056 4750 3426 4639 
Q 3797 4528 4122 4306 
z
" transform="scale(0.015625)"/>
      </defs>
      <use xlink:href="#DejaVuSans-41"/>
      <use xlink:href="#DejaVuSans-55" x="68.408203"/>
      <use xlink:href="#DejaVuSans-43" x="141.601562"/>
     </g>
    </g>
   </g>
   <g id="line2d_12">
    <path d="M 73.832727 292.394959 
L 77.112066 290.959087 
L 80.391405 291.521266 
L 83.670744 295.168014 
L 86.950083 292.370544 
L 90.229421 262.871463 
L 93.50876 228.815535 
L 96.788099 194.592155 
L 100.067438 169.598817 
L 103.346777 151.762667 
L 106.626116 126.180866 
L 109.905455 112.549532 
L 113.184793 104.512204 
L 116.464132 95.128569 
L 119.743471 88.050202 
L 123.02281 82.005756 
L 126.302149 78.904774 
L 129.581488 76.245481 
L 132.860826 74.096796 
L 136.140165 72.401354 
L 139.419504 70.134141 
L 142.698843 70.011348 
L 145.978182 68.183396 
L 149.257521 67.282172 
L 152.53686 64.826456 
L 155.816198 65.906124 
L 159.095537 64.595848 
L 162.374876 64.382992 
L 165.654215 63.279874 
L 168.933554 63.286507 
L 172.212893 62.630684 
L 175.492231 62.016436 
L 178.77157 61.247971 
L 182.050909 61.17432 
L 185.330248 61.02898 
L 188.609587 60.588256 
L 191.888926 60.331208 
L 195.168264 59.383116 
L 198.447603 59.725617 
L 201.726942 59.971609 
L 205.006281 58.677434 
L 208.28562 59.155217 
L 211.564959 58.689517 
L 214.844298 58.5718 
L 218.123636 58.054404 
L 221.402975 58.729971 
L 224.682314 58.364891 
L 227.961653 57.316833 
L 231.240992 58.516958 
L 234.520331 57.817163 
L 237.799669 57.225181 
L 241.079008 57.602095 
L 244.358347 57.722086 
L 247.637686 57.144025 
L 250.917025 57.645133 
L 254.196364 57.338445 
L 257.475702 56.978193 
L 260.755041 57.11254 
L 264.03438 56.923227 
L 267.313719 56.77745 
L 270.593058 56.070959 
L 273.872397 55.874888 
L 277.151736 56.661103 
L 280.431074 56.030785 
L 283.710413 56.41782 
L 286.989752 55.632134 
L 290.269091 55.37518 
L 293.54843 55.681557 
L 296.827769 55.24865 
L 300.107107 55.699152 
L 303.386446 55.981643 
L 306.665785 55.369824 
L 309.945124 55.579348 
L 313.224463 56.263449 
L 316.503802 55.460292 
L 319.78314 54.881079 
L 323.062479 55.403893 
L 326.341818 55.525223 
L 329.621157 55.9434 
L 332.900496 55.96875 
L 336.179835 55.126261 
L 339.459174 55.207885 
L 342.738512 54.630571 
L 346.017851 55.030468 
L 349.29719 55.138406 
L 352.576529 54.825646 
L 355.855868 54.931778 
L 359.135207 55.554559 
L 362.414545 55.532822 
L 365.693884 55.831039 
L 368.973223 54.622349 
L 372.252562 55.605352 
L 375.531901 55.073693 
L 378.81124 54.979581 
L 382.090579 54.514099 
L 385.369917 53.697551 
L 388.649256 55.498161 
L 391.928595 54.075524 
L 395.207934 54.655049 
L 398.487273 54.549601 
" clip-path="url(#p0d18e4ef01)" style="fill: none; stroke: #1f77b4; stroke-width: 1.5; stroke-linecap: square"/>
   </g>
   <g id="line2d_13">
    <path d="M 73.832727 295.43428 
L 77.112066 290.702725 
L 80.391405 292.724755 
L 83.670744 295.488 
L 86.950083 293.838711 
L 90.229421 250.657316 
L 93.50876 213.290383 
L 96.788099 178.113025 
L 100.067438 154.293186 
L 103.346777 134.351202 
L 106.626116 118.29436 
L 109.905455 107.337952 
L 113.184793 98.284299 
L 116.464132 92.180994 
L 119.743471 86.23016 
L 123.02281 83.049641 
L 126.302149 79.622352 
L 129.581488 76.993174 
L 132.860826 74.623504 
L 136.140165 72.634391 
L 139.419504 72.487804 
L 142.698843 68.76482 
L 145.978182 68.809353 
L 149.257521 67.644792 
L 152.53686 66.239719 
L 155.816198 66.486209 
L 159.095537 65.717839 
L 162.374876 64.908173 
L 165.654215 64.880239 
L 168.933554 62.907475 
L 172.212893 62.43128 
L 175.492231 62.131039 
L 178.77157 61.447593 
L 182.050909 61.756866 
L 185.330248 61.965954 
L 188.609587 60.653156 
L 191.888926 60.721544 
L 195.168264 60.266183 
L 198.447603 59.460597 
L 201.726942 60.592771 
L 205.006281 59.36443 
L 208.28562 59.599305 
L 211.564959 58.807982 
L 214.844298 58.880855 
L 218.123636 59.002776 
L 221.402975 58.43929 
L 224.682314 58.09383 
L 227.961653 58.461993 
L 231.240992 57.600133 
L 234.520331 58.382954 
L 237.799669 57.691037 
L 241.079008 57.431529 
L 244.358347 57.427886 
L 247.637686 57.020515 
L 250.917025 56.479918 
L 254.196364 56.984764 
L 257.475702 56.871126 
L 260.755041 57.278434 
L 264.03438 55.89541 
L 267.313719 57.32686 
L 270.593058 56.907126 
L 273.872397 56.126548 
L 277.151736 55.701488 
L 280.431074 55.680249 
L 283.710413 56.874084 
L 286.989752 56.148472 
L 290.269091 55.884915 
L 293.54843 56.6294 
L 296.827769 56.105246 
L 300.107107 54.954605 
L 303.386446 55.519119 
L 306.665785 55.510244 
L 309.945124 55.450762 
L 313.224463 55.027976 
L 316.503802 56.290573 
L 319.78314 55.179732 
L 323.062479 55.293962 
L 326.341818 55.792423 
L 329.621157 55.896345 
L 332.900496 55.21511 
L 336.179835 55.575954 
L 339.459174 55.17285 
L 342.738512 54.20274 
L 346.017851 55.100693 
L 349.29719 54.696655 
L 352.576529 54.365084 
L 355.855868 54.584356 
L 359.135207 54.405662 
L 362.414545 55.047752 
L 365.693884 54.09206 
L 368.973223 54.119216 
L 372.252562 53.689922 
L 375.531901 53.887643 
L 378.81124 54.126909 
L 382.090579 54.253813 
L 385.369917 54.868217 
L 388.649256 53.769895 
L 391.928595 54.100936 
L 395.207934 53.952294 
L 398.487273 53.833269 
" clip-path="url(#p0d18e4ef01)" style="fill: none; stroke: #ff7f0e; stroke-width: 1.5; stroke-linecap: square"/>
   </g>
   <g id="line2d_14">
    <path d="M 73.832727 293.245888 
L 77.112066 293.106683 
L 80.391405 293.857116 
L 83.670744 294.026934 
L 86.950083 294.396031 
L 90.229421 255.202952 
L 93.50876 220.694933 
L 96.788099 190.232251 
L 100.067438 163.395016 
L 103.346777 143.807212 
L 106.626116 124.68844 
L 109.905455 111.21864 
L 113.184793 102.084641 
L 116.464132 94.836642 
L 119.743471 88.166954 
L 123.02281 84.010346 
L 126.302149 80.268178 
L 129.581488 78.081873 
L 132.860826 76.064203 
L 136.140165 74.466018 
L 139.419504 72.830929 
L 142.698843 71.371077 
L 145.978182 68.938998 
L 149.257521 68.961794 
L 152.53686 67.289397 
L 155.816198 66.454912 
L 159.095537 65.058216 
L 162.374876 66.21194 
L 165.654215 64.989703 
L 168.933554 63.162717 
L 172.212893 63.862481 
L 175.492231 62.191673 
L 178.77157 62.169717 
L 182.050909 62.684311 
L 185.330248 61.66646 
L 188.609587 60.569508 
L 191.888926 60.663246 
L 195.168264 60.383651 
L 198.447603 59.68507 
L 201.726942 59.842556 
L 205.006281 59.776348 
L 208.28562 60.315824 
L 211.564959 59.404728 
L 214.844298 58.991721 
L 218.123636 58.748189 
L 221.402975 58.644673 
L 224.682314 58.705649 
L 227.961653 57.694867 
L 231.240992 58.210519 
L 234.520331 57.766058 
L 237.799669 57.895174 
L 241.079008 57.919029 
L 244.358347 58.041137 
L 247.637686 57.69085 
L 250.917025 57.558745 
L 254.196364 57.040041 
L 257.475702 57.100394 
L 260.755041 56.724664 
L 264.03438 57.052062 
L 267.313719 56.200822 
L 270.593058 57.156388 
L 273.872397 56.469298 
L 277.151736 56.227043 
L 280.431074 56.489634 
L 283.710413 55.69009 
L 286.989752 56.59178 
L 290.269091 56.368834 
L 293.54843 55.575487 
L 296.827769 56.136015 
L 300.107107 55.048281 
L 303.386446 55.561566 
L 306.665785 55.548082 
L 309.945124 55.70482 
L 313.224463 55.556023 
L 316.503802 55.384616 
L 319.78314 55.478946 
L 323.062479 55.128098 
L 326.341818 55.262103 
L 329.621157 55.194431 
L 332.900496 54.622069 
L 336.179835 55.503611 
L 339.459174 54.746669 
L 342.738512 55.331239 
L 346.017851 54.452967 
L 349.29719 55.206701 
L 352.576529 54.194705 
L 355.855868 54.142137 
L 359.135207 54.544276 
L 362.414545 54.258702 
L 365.693884 54.099223 
L 368.973223 53.709635 
L 372.252562 54.126379 
L 375.531901 53.981599 
L 378.81124 53.814335 
L 382.090579 53.683787 
L 385.369917 53.568 
L 388.649256 54.187885 
L 391.928595 53.86902 
L 395.207934 53.808168 
L 398.487273 53.830715 
" clip-path="url(#p0d18e4ef01)" style="fill: none; stroke: #2ca02c; stroke-width: 1.5; stroke-linecap: square"/>
   </g>
   <g id="line2d_15">
    <path d="M 73.832727 286.552221 
L 77.112066 292.089517 
L 80.391405 293.326017 
L 83.670744 293.062056 
L 86.950083 290.288658 
L 90.229421 260.19389 
L 93.50876 228.150618 
L 96.788099 197.561125 
L 100.067438 169.190325 
L 103.346777 147.09623 
L 106.626116 131.840676 
L 109.905455 116.951478 
L 113.184793 104.558575 
L 116.464132 95.916591 
L 119.743471 90.330214 
L 123.02281 84.338834 
L 126.302149 81.070774 
L 129.581488 77.95936 
L 132.860826 76.98953 
L 136.140165 73.168759 
L 139.419504 73.638383 
L 142.698843 69.836173 
L 145.978182 69.104581 
L 149.257521 68.094329 
L 152.53686 67.699976 
L 155.816198 67.323124 
L 159.095537 66.212968 
L 162.374876 65.485113 
L 165.654215 64.709798 
L 168.933554 64.115543 
L 172.212893 61.915037 
L 175.492231 63.003362 
L 178.77157 62.839274 
L 182.050909 62.007467 
L 185.330248 61.871282 
L 188.609587 61.779195 
L 191.888926 61.375031 
L 195.168264 60.949878 
L 198.447603 60.406167 
L 201.726942 60.023025 
L 205.006281 60.483992 
L 208.28562 60.678568 
L 211.564959 58.719258 
L 214.844298 59.569066 
L 218.123636 59.854359 
L 221.402975 58.957246 
L 224.682314 58.760054 
L 227.961653 59.51083 
L 231.240992 58.715864 
L 234.520331 59.375984 
L 237.799669 57.988413 
L 241.079008 58.445176 
L 244.358347 58.655012 
L 247.637686 57.334272 
L 250.917025 58.371493 
L 254.196364 57.609943 
L 257.475702 58.494879 
L 260.755041 57.962036 
L 264.03438 58.121173 
L 267.313719 58.098999 
L 270.593058 57.906946 
L 273.872397 57.514928 
L 277.151736 56.897721 
L 280.431074 57.117336 
L 283.710413 57.17663 
L 286.989752 57.347726 
L 290.269091 57.350061 
L 293.54843 57.446446 
L 296.827769 55.90522 
L 300.107107 56.617566 
L 303.386446 56.284594 
L 306.665785 56.82326 
L 309.945124 56.482471 
L 313.224463 56.853998 
L 316.503802 56.628497 
L 319.78314 56.875143 
L 323.062479 56.507541 
L 326.341818 55.96576 
L 329.621157 56.856551 
L 332.900496 55.683644 
L 336.179835 56.78318 
L 339.459174 55.693453 
L 342.738512 55.923656 
L 346.017851 55.681152 
L 349.29719 56.076782 
L 352.576529 56.056166 
L 355.855868 55.685419 
L 359.135207 56.128323 
L 362.414545 56.036048 
L 365.693884 56.032031 
L 368.973223 56.103783 
L 372.252562 55.531545 
L 375.531901 54.958872 
L 378.81124 56.003785 
L 382.090579 55.520459 
L 385.369917 55.701052 
L 388.649256 55.661844 
L 391.928595 55.730357 
L 395.207934 55.436998 
L 398.487273 55.266619 
" clip-path="url(#p0d18e4ef01)" style="fill: none; stroke: #d62728; stroke-width: 1.5; stroke-linecap: square"/>
   </g>
   <g id="patch_3">
    <path d="M 57.6 307.584 
L 57.6 41.472 
" style="fill: none; stroke: #000000; stroke-width: 0.8; stroke-linejoin: miter; stroke-linecap: square"/>
   </g>
   <g id="patch_4">
    <path d="M 414.72 307.584 
L 414.72 41.472 
" style="fill: none; stroke: #000000; stroke-width: 0.8; stroke-linejoin: miter; stroke-linecap: square"/>
   </g>
   <g id="patch_5">
    <path d="M 57.6 307.584 
L 414.72 307.584 
" style="fill: none; stroke: #000000; stroke-width: 0.8; stroke-linejoin: miter; stroke-linecap: square"/>
   </g>
   <g id="patch_6">
    <path d="M 57.6 41.472 
L 414.72 41.472 
" style="fill: none; stroke: #000000; stroke-width: 0.8; stroke-linejoin: miter; stroke-linecap: square"/>
   </g>
   <g id="legend_1">
    <g id="patch_7">
     <path d="M 342.712188 302.584 
L 407.72 302.584 
Q 409.72 302.584 409.72 300.584 
L 409.72 242.31525 
Q 409.72 240.31525 407.72 240.31525 
L 342.712188 240.31525 
Q 340.712188 240.31525 340.712188 242.31525 
L 340.712188 300.584 
Q 340.712188 302.584 342.712188 302.584 
z
" style="fill: #ffffff; opacity: 0.8; stroke: #cccccc; stroke-linejoin: miter"/>
    </g>
    <g id="line2d_16">
     <path d="M 344.712188 248.413687 
L 354.712188 248.413687 
L 364.712188 248.413687 
" style="fill: none; stroke: #1f77b4; stroke-width: 1.5; stroke-linecap: square"/>
    </g>
    <g id="text_14">
     <!-- All -->
     <g transform="translate(372.712188 251.913687) scale(0.1 -0.1)">
      <defs>
       <path id="DejaVuSans-6c" d="M 603 4863 
L 1178 4863 
L 1178 0 
L 603 0 
L 603 4863 
z
" transform="scale(0.015625)"/>
      </defs>
      <use xlink:href="#DejaVuSans-41"/>
      <use xlink:href="#DejaVuSans-6c" x="68.408203"/>
      <use xlink:href="#DejaVuSans-6c" x="96.191406"/>
     </g>
    </g>
    <g id="line2d_17">
     <path d="M 344.712188 263.091812 
L 354.712188 263.091812 
L 364.712188 263.091812 
" style="fill: none; stroke: #ff7f0e; stroke-width: 1.5; stroke-linecap: square"/>
    </g>
    <g id="text_15">
     <!-- HM -->
     <g transform="translate(372.712188 266.591812) scale(0.1 -0.1)">
      <defs>
       <path id="DejaVuSans-48" d="M 628 4666 
L 1259 4666 
L 1259 2753 
L 3553 2753 
L 3553 4666 
L 4184 4666 
L 4184 0 
L 3553 0 
L 3553 2222 
L 1259 2222 
L 1259 0 
L 628 0 
L 628 4666 
z
" transform="scale(0.015625)"/>
       <path id="DejaVuSans-4d" d="M 628 4666 
L 1569 4666 
L 2759 1491 
L 3956 4666 
L 4897 4666 
L 4897 0 
L 4281 0 
L 4281 4097 
L 3078 897 
L 2444 897 
L 1241 4097 
L 1241 0 
L 628 0 
L 628 4666 
z
" transform="scale(0.015625)"/>
      </defs>
      <use xlink:href="#DejaVuSans-48"/>
      <use xlink:href="#DejaVuSans-4d" x="75.195312"/>
     </g>
    </g>
    <g id="line2d_18">
     <path d="M 344.712188 277.769937 
L 354.712188 277.769937 
L 364.712188 277.769937 
" style="fill: none; stroke: #2ca02c; stroke-width: 1.5; stroke-linecap: square"/>
    </g>
    <g id="text_16">
     <!-- HM_D -->
     <g transform="translate(372.712188 281.269937) scale(0.1 -0.1)">
      <defs>
       <path id="DejaVuSans-5f" d="M 3263 -1063 
L 3263 -1509 
L -63 -1509 
L -63 -1063 
L 3263 -1063 
z
" transform="scale(0.015625)"/>
       <path id="DejaVuSans-44" d="M 1259 4147 
L 1259 519 
L 2022 519 
Q 2988 519 3436 956 
Q 3884 1394 3884 2338 
Q 3884 3275 3436 3711 
Q 2988 4147 2022 4147 
L 1259 4147 
z
M 628 4666 
L 1925 4666 
Q 3281 4666 3915 4102 
Q 4550 3538 4550 2338 
Q 4550 1131 3912 565 
Q 3275 0 1925 0 
L 628 0 
L 628 4666 
z
" transform="scale(0.015625)"/>
      </defs>
      <use xlink:href="#DejaVuSans-48"/>
      <use xlink:href="#DejaVuSans-4d" x="75.195312"/>
      <use xlink:href="#DejaVuSans-5f" x="161.474609"/>
      <use xlink:href="#DejaVuSans-44" x="211.474609"/>
     </g>
    </g>
    <g id="line2d_19">
     <path d="M 344.712188 292.726187 
L 354.712188 292.726187 
L 364.712188 292.726187 
" style="fill: none; stroke: #d62728; stroke-width: 1.5; stroke-linecap: square"/>
    </g>
    <g id="text_17">
     <!-- HM_TF -->
     <g transform="translate(372.712188 296.226187) scale(0.1 -0.1)">
      <defs>
       <path id="DejaVuSans-54" d="M -19 4666 
L 3928 4666 
L 3928 4134 
L 2272 4134 
L 2272 0 
L 1638 0 
L 1638 4134 
L -19 4134 
L -19 4666 
z
" transform="scale(0.015625)"/>
       <path id="DejaVuSans-46" d="M 628 4666 
L 3309 4666 
L 3309 4134 
L 1259 4134 
L 1259 2759 
L 3109 2759 
L 3109 2228 
L 1259 2228 
L 1259 0 
L 628 0 
L 628 4666 
z
" transform="scale(0.015625)"/>
      </defs>
      <use xlink:href="#DejaVuSans-48"/>
      <use xlink:href="#DejaVuSans-4d" x="75.195312"/>
      <use xlink:href="#DejaVuSans-5f" x="161.474609"/>
      <use xlink:href="#DejaVuSans-54" x="211.474609"/>
      <use xlink:href="#DejaVuSans-46" x="272.558594"/>
     </g>
    </g>
   </g>
  </g>
 </g>
 <defs>
  <clipPath id="p0d18e4ef01">
   <rect x="57.6" y="41.472" width="357.12" height="266.112"/>
  </clipPath>
 </defs>
</svg>
